<svg width="34" height="34" viewBox="0 0 34 34" fill="none" xmlns="http://www.w3.org/2000/svg">
<path d="M2.08445 15.0812L22.3371 6.2509C24.3363 5.33108 31.1162 2.38764 31.1162 2.38764C31.1162 2.38764 34.2453 1.09989 33.9846 4.22729C33.8976 5.51504 33.2023 10.0222 32.5069 14.8972L30.3339 29.3385C30.3339 29.3385 30.16 31.4541 28.6824 31.822C27.2047 32.1899 24.7709 30.5343 24.3363 30.1663C23.9886 29.8904 17.8172 25.7512 15.5573 23.7276C14.9488 23.1757 14.2534 22.0719 15.6442 20.7841C18.7733 17.7487 22.511 13.9774 24.7709 11.5859C25.814 10.4821 26.857 7.90659 22.511 11.034L10.2551 19.7723C10.2551 19.7723 8.86432 20.6921 6.25668 19.8643C3.64904 19.0365 0.606792 17.9327 0.606792 17.9327C0.606792 17.9327 -1.47932 16.5529 2.08445 15.0812Z" fill="black"/>
</svg>
