<svg width="391" height="389" fill="none" xmlns="http://www.w3.org/2000/svg"><g clip-path="url(#clip0_1801_393)"><path d="M195.969 324.588c-2.885 10.817-7.653 23.386-16.784 22.125-3.555-.484-17.846-21.53-20.753-30.502-3.461-10.701-4.525-19.925-3.865-27.735 2.586-30.795 31.973-39.557 46.919-29.738l23.328-27.041c4.728 8.138 8.885 19.959 10.636 32.475 3.755 26.714-3.456 56.569-39.481 60.416z" fill="#8E8FB3"/><path d="M195.969 324.587c-2.885 10.818-7.653 23.386-16.784 22.126-3.555-.484-17.846-21.531-20.753-30.503-3.461-10.701-4.525-19.924-3.865-27.735 5.353-.969 12.288.193 20.753 6.422 24.927 18.354 38.256 11.465 46.049 6.299 9.131-6.054 12.691-23.964 14.081-37.023 3.755 26.714-3.456 56.569-39.481 60.416v-.002z" fill="#6C709E"/><path d="M200.824 259.743c-11.821-4.908-25.677-2.311-34.501 7.041-6.025 6.219-8.936 15.092-9.388 23.706-.391 8.888 1.399 17.967 4.285 26.326 3.929 8.936 9.494 17.402 15.729 24.927.875.967 1.703 1.928 2.758 2.616.015.01.067.044-.027-.004a.415.415 0 00-.097-.023c-.023-.004-.102 0-.031.002.51.071 1.096.073 1.608.012 7.258-1.149 10.704-14.168 12.485-20.38a2.42 2.42 0 012.07-1.774c4.652-.561 9.235-1.538 13.534-3.203 28.958-10.996 28.039-48.522 19.273-73.207-1.576-4.481-3.478-8.847-5.803-12.906-1.497-2.75 2.485-5.135 4.178-2.388 9.443 17.115 13.893 38.604 10.878 57.993-3.707 22.76-18.838 36.121-41.549 38.497 0 .001 2.074-1.78 2.069-1.771-2.471 8.666-6.524 23.222-17.371 23.989-.775.006-1.575.006-2.34-.158-1.115-.24-1.977-.935-2.81-1.628-4.636-4.4-8.118-9.781-11.596-15.064-2.987-4.802-5.959-9.676-7.915-15.056-2.832-8.675-4.644-17.868-4.307-27.035.543-17.822 11.32-33.875 29.559-37.215 3.573-.647 7.288-.753 10.883-.025 3.571.741 7.066 2.255 9.75 4.717 1.014.937-.099 2.566-1.321 2.011h-.003z" fill="#6B6B9A"/><path d="M188.106 333.653c.166 1.395 1.168 8.138-3.356 12.033-7.908 6.807-29.12 3.207-38.997-16.292-6.983-13.786-6.711-30.178 6.286-35.39 8.859-3.553 20.099 6.759 24.896 19.248 0 0 2.19 3.866 5.958 9.321 4.447 6.439 5.214 11.08 5.214 11.08h-.001z" fill="#fff"/><path d="M184.748 345.686c-6.625 5.704-22.587 4.099-33.393-8.033 10.299 7.35 22.447 7.91 27.21 2.469 7.373-8.43-7.268-36.726-7.636-37.437a40.71 40.71 0 016.001 10.567s2.189 3.87 5.961 9.323c4.449 6.438 5.214 11.08 5.214 11.08.164 1.395 1.168 8.139-3.357 12.032v-.001z" fill="#D3D4E2"/><path d="M189.299 333.509c4.112 16.722-12.592 20.736-25.34 15.87-11.562-4.127-19.94-14.385-23.555-25.887-3.363-10.067-2.898-23.594 6.941-29.961 2.812-1.835 6.251-3.132 9.622-2.71 7.807.92 14.222 7.29 17.972 13.711 1.447 2.6 2.571 5.378 3.116 8.289a1.223 1.223 0 01-2.247.862c-4.299-6.93-13.729-21.129-23.2-17.109-6.979 2.95-9.333 10.437-8.607 17.591 1.282 12.908 9.335 25.743 21.735 30.456 7.332 2.985 19.605 3.077 20.854-6.867.217-1.27.304-2.557.318-3.959a1.214 1.214 0 012.389-.287l.002.001z" fill="#6B6B9A"/><path d="M169.995 325.29c2.791 4.305 3.317 9.91.239 12.758-4.262 3.943-10.753-.114-13.413-4.215-2.66-4.103-3.714-11.683 1.624-13.965 3.854-1.648 8.758 1.118 11.55 5.423v-.001zm-1.862-14.139c1.393 2.146 1.658 4.842.119 6.361-1.538 1.52-4.816.784-6.687-2.103-1.872-2.886-1.206-6.18.809-6.963 2.014-.784 4.367.557 5.759 2.703v.002zm-9.915-.404c1.191 2.395 1.146 5.225-.632 6.62-1.777 1.395-5.095.243-6.697-2.977-1.601-3.22-.517-6.561 1.668-7.137 2.186-.574 4.469 1.097 5.66 3.492l.001.002zm-4.627 8.873c.804 1.617.775 3.53-.427 4.472-1.2.942-3.442.164-4.523-2.011-1.082-2.174-.35-4.431 1.126-4.82 1.477-.388 3.019.741 3.823 2.359h.001z" fill="#F27E80"/><path d="M167.868 278.154c-.481-3.642 3.633-11.45 9.925-14.715 9.726-5.049 18.028-2.73 18.99-.976 1.098 2.006-5.134 2.727-16.04 8.986-6.972 4.002-12.29 11.13-12.873 6.703l-.002.002z" fill="#fff" opacity=".5"/><path d="M134.035 264.132s-5.005 10.792-15.538 9.673c-5.638-.602-12.862-4.182-13.836-14.612-.181-1.912-.151-4.055.138-6.449 2.55-21.198 23.852-32.814 49.328-23.87l.091-.391c.469-2.208 2.665-13.426.992-25.56l34.103 25.782s12.41 55.765-55.278 35.426v.001z" fill="#8E8FB3"/><path d="M134.034 264.132s-5.004 10.791-15.538 9.672c-5.637-.601-12.861-4.181-13.836-14.611 2.623 1.811 7.953 4.254 15.532 1.72 11.146-3.711 12.741-10.827 12.741-10.827s25.14 15.899 33.278 3.507c8.344-12.699-5.54-21.752-11.995-25.109.47-2.208 2.665-13.426.992-25.56l34.103 25.782s12.41 55.765-55.278 35.426h.001z" fill="#6C709E"/><path d="M120.061 276.294c-.59 0-1.195-.031-1.818-.098-2.859-.303-8.227-1.533-12.067-6.353-3.38-4.244-4.647-10.094-3.768-17.39 1.213-10.073 6.447-18.46 14.738-23.619 9.476-5.895 22.153-6.984 35.136-3.088.72-4.234 1.83-13.136.542-22.494a2.408 2.408 0 012.056-2.713 2.405 2.405 0 012.713 2.056c1.903 13.832-1 26.312-1.125 26.836a2.414 2.414 0 01-1.188 1.556 2.412 2.412 0 01-1.95.159c-12.505-4.392-24.767-3.747-33.639 1.774-7.027 4.373-11.467 11.513-12.503 20.108-.719 5.969.208 10.618 2.755 13.816 2.748 3.45 6.7 4.341 8.811 4.566 8.649.917 12.923-7.919 13.102-8.296a2.41 2.41 0 012.872-1.285c21.591 6.486 36.847 5.771 45.342-2.127 11.202-10.415 6.938-30.274 6.894-30.474a2.407 2.407 0 014.698-1.045c.206.924 4.886 22.773-8.314 35.043-9.574 8.901-25.769 10.162-48.151 3.756-1.989 3.172-6.899 9.311-15.131 9.311l-.005.001z" fill="#6B6B9A"/><path d="M388.079 206.743c-.046.353-.098.713-.151 1.061a30.91 30.91 0 01-.597 2.916c-5.469 21.053-31.358 18.5-31.851-4.79-.348-16.575-8.009-21.847-15.2-20.837a13.583 13.583 0 00-3.276.899c-2.378.98-4.559 2.628-6.212 4.716-1.391 1.763-2.407 3.851-2.853 6.13-.835 4.326-.493 8.658.679 12.99 2.465 9.129 8.629 18.263 15.299 27.328 1.909 2.598 3.856 5.179 5.77 7.765 2.175 2.928 3.903 5.916 5.219 8.943 2.244 5.156 3.305 10.393 3.317 15.491a37.051 37.051 0 01-2.297 12.909c-7.215 19.614-30.737 32.994-59.724 22.786l3.074-25.42c5.723 3.845 11.5 5.242 16.616 5.046a21.395 21.395 0 001.769-.128h.006c.203-.023.407-.046.598-.081 7.637-1.032 13.409-5.574 14.69-10.295 4.065-14.881-16.667-40.352-23.267-54.666-12.289-26.666-2.123-51.598 19.725-60.198a44.938 44.938 0 019.551-2.57c1.821-.29 3.706-.47 5.637-.551a44.102 44.102 0 014.118.012c29.102 1.432 41.681 31.445 39.362 50.543l-.002.001z" fill="#8E8FB3"/><path d="M355.927 282.264c-7.214 19.614-30.737 32.994-59.724 22.786l3.074-25.42c5.724 3.845 11.5 5.242 16.616 5.046 7.138 10.181 29.386 14.834 40.034-2.412zm-36.995-78.531c4.487 16.595 18.717 28.739 24.982 33.423-6.669-9.064-12.828-18.199-15.298-27.325-1.171-4.334-1.512-8.667-.672-12.989.443-2.282 1.456-4.367 2.851-6.132 2.385-3.03 5.878-5.115 9.489-5.615 7.189-1.009 14.848 4.26 15.196 20.837.492 23.291 26.384 25.844 31.852 4.791.242-.933.438-1.91.597-2.918-3.917 4.248-14.199 12.194-21.781 6.351-10.668-8.224-1.622-26.884-15.485-36.859-10.561-7.601-37.553 4.92-31.732 26.439l.001-.003z" fill="#6C709E"/><path d="M332.65 178.254c.266.193 3.003-1.083 2.982-.754-.084 1.436-.195 4.329 1.371 8.493.016-.009.027-.01.044-.014.208-.092.411-.17.622-.239.182-.068.367-.126.55-.183.145-.044.296-.09.448-.129.134-.036.275-.074.417-.106.395-.097.793-.169 1.196-.226 7.191-1.009 14.852 4.259 15.196 20.836.493 23.289 26.383 25.845 31.855 4.791.241-.935.433-1.908.596-2.917-3.919 4.246-14.2 12.19-21.783 6.349-10.669-8.223-1.62-26.885-15.483-36.863-4.41-3.169-11.671-2.838-18.221.187-.026.376.031.65.208.776l.002-.001z" fill="#686868"/><path d="M337.004 185.993a13.374 13.374 0 013.279-.896c7.191-1.01 14.851 4.258 15.196 20.835.493 23.29 26.383 25.845 31.855 4.791.241-.934.433-1.908.596-2.917.047-.351.099-.708.146-1.064 2.323-19.095-10.256-49.11-39.358-50.538a42.428 42.428 0 00-4.118-.016 50.064 50.064 0 00-5.636.553c-1.627 1.488-5.408 6.816-5.819 11.749-.051.61 2.679-1.062 2.563-.402-.394 2.22-4.198 9.339-3.057 10.17.263.191 3.001-1.083 2.982-.756-.083 1.437-.199 4.327 1.371 8.493v-.002z" fill="#fff"/><path d="M332.65 178.254c.266.193 3.003-1.083 2.982-.754-.084 1.436-.195 4.329 1.371 8.493.016-.009.027-.01.044-.014.209-.085.412-.164.622-.239.182-.068.367-.126.55-.183.145-.044.296-.09.448-.129.141-.038.281-.075.417-.106.395-.097.793-.169 1.196-.226 7.191-1.009 14.852 4.259 15.196 20.836.493 23.289 26.383 25.845 31.855 4.791.241-.935.433-1.908.596-2.917-3.919 4.246-14.2 12.19-21.783 6.349-10.669-8.223-1.62-26.885-15.483-36.863-4.41-3.169-11.671-2.838-18.221.187-.026.376.031.65.208.776l.002-.001z" fill="#D3D4E2"/><path d="M315.663 310.909c-6.553 0-13.399-1.172-20.256-3.587a2.406 2.406 0 111.598-4.539c20.577 7.251 40.938 2.355 51.869-12.468 9.688-13.137 9.261-29.978-1.114-43.955-.721-.97-1.447-1.942-2.173-2.915-11.367-15.23-23.122-30.98-20.01-47.061 1.576-8.14 9.611-14.448 17.563-13.765 3.349.285 14.312 2.807 14.744 23.266.239 11.31 6.652 16.064 12.072 16.698 5.699.672 12.566-2.928 15.044-12.467 2.528-9.734.052-25.826-9.575-37.747-5.367-6.647-15.038-14.433-30.729-13.775-13.996.587-25.798 7.103-32.379 17.875-7.18 11.751-7.344 27.072-.447 42.036 1.83 3.971 4.873 8.977 8.096 14.276 8.664 14.25 18.485 30.404 15.313 42.025-1.218 4.464-5.525 8.56-11.237 10.689-8.315 3.098-17.83 1.691-26.107-3.862a2.406 2.406 0 012.68-3.997c6.976 4.679 14.901 5.898 21.747 3.348 4.221-1.573 7.47-4.496 8.275-7.446 2.628-9.625-7.026-25.502-14.783-38.259-3.296-5.42-6.409-10.541-8.355-14.762-7.579-16.447-7.32-33.416.711-46.559 7.434-12.165 20.658-19.518 36.285-20.174 17.656-.75 28.611 8.052 34.676 15.56 9.529 11.801 13.842 29.063 10.488 41.98-3.205 12.342-12.499 16.946-20.262 16.038-7.92-.927-16.04-7.897-16.324-21.378-.235-11.097-4.1-18.04-10.342-18.572-5.511-.469-11.32 4.149-12.429 9.885-2.709 13.992 8.398 28.875 19.142 43.267.728.976 1.456 1.952 2.18 2.926 11.508 15.501 11.948 35.001 1.123 49.679-8.513 11.543-22.023 17.739-37.085 17.739l.001.001z" fill="#6B6B9A"/><path d="M289.41 309.435c-15.375 12.019-36.442 18.149-55.614 16.35-17.716-1.661-33.807-10.095-42.29-26.908-14.173-28.117-14.962-56.98-27.485-80.927-2.653-5.077-5.829-9.932-9.776-14.51l75.027-16.591 2.846-.631c10.052 4.12 19.015 9.035 26.95 14.534 24.219 16.772 38.879 38.921 45.828 60.27 6.419 19.713-3.369 38.944-15.484 48.413h-.002z" fill="#8E8FB3"/><path d="M206.657 261.737s48.473-34.536 49.889-32.594c-1.212 32.594 18.683 41.383 16.832 42.162-1.85.778-55.511 26.078-54.097 22.795 1.416-3.283-12.625-32.362-12.625-32.362l.001-.001zm52.412-60.986c-12.796 13.661-35.504 22.744-61.389 22.744-12.151 0-23.605-2.003-33.657-5.547-2.653-5.077-5.829-9.932-9.776-14.509l75.027-16.591 2.846-.631c10.052 4.12 19.015 9.035 26.95 14.534h-.001z" fill="#6C709E"/><path d="M220.321 221.084c-7.122 1.565-14.738 2.412-22.643 2.412-12.151 0-23.605-2.002-33.657-5.546-.133-.247-.258-.5-.397-.746a33.475 33.475 0 00-.47-.866 51.696 51.696 0 00-.753-1.341 41.269 41.269 0 00-.493-.843 31.952 31.952 0 00-.481-.8c-.24-.403-.493-.806-.746-1.209-.235-.373-.475-.74-.716-1.107a39.184 39.184 0 00-.855-1.27 48.836 48.836 0 00-1.058-1.504 70.532 70.532 0 00-2.857-3.699c-.312-.379-.631-.752-.95-1.125l75.027-16.591c-5.402 9.331-10.436 21.783-8.951 34.234v.001z" fill="#E8E8E8"/><path d="M252.823 310.633c-4.782 7.959-11.471 12.67-19.027 15.154-17.716-1.661-33.807-10.095-42.29-26.908-3.712-7.363-6.503-14.781-8.831-22.143-8.441-26.709-10.744-52.763-28.43-73.294l75.027-16.591c-6.605 11.411-12.669 27.497-6.905 42.542 4.602 12.008 12.224 21.266 19.328 29.705 13.318 15.821 24.802 28.773 11.128 51.535z" fill="#fff"/><path d="M252.824 310.633c-4.783 7.959-11.471 12.669-19.028 15.154-17.715-1.661-33.807-10.095-42.289-26.908-3.712-7.363-6.504-14.781-8.832-22.143 16.453 4.319 43.662 6.725 59.02-17.638 13.318 15.82 24.801 28.772 11.128 51.535h.001z" fill="#E8E8E8"/><path d="M220.321 221.084c-7.122 1.565-14.738 2.412-22.643 2.412-12.151 0-23.605-2.002-33.657-5.546-.126-.253-.258-.5-.397-.746a86.182 86.182 0 00-1.223-2.207 41.269 41.269 0 00-.493-.843c-.156-.264-.312-.535-.481-.8-.24-.403-.493-.806-.746-1.209-.235-.373-.475-.74-.716-1.107a39.184 39.184 0 00-.855-1.27 48.836 48.836 0 00-1.058-1.504 70.532 70.532 0 00-2.857-3.699c-.312-.379-.631-.752-.95-1.125l75.027-16.591c-5.402 9.331-10.436 21.783-8.951 34.234v.001z" fill="#D3D4E2"/><path d="M240.467 328.498c-5.245 0-10.413-.537-15.366-1.647-16.358-3.661-28.716-12.959-35.74-26.891-7.358-14.597-11.129-29.244-14.775-43.409-4.874-18.933-9.478-36.816-22.161-51.54a2.405 2.405 0 113.646-3.14c13.417 15.576 18.158 33.987 23.175 53.48 3.583 13.917 7.288 28.31 14.413 42.442 8.026 15.921 22.101 22.036 32.493 24.362 20.346 4.554 44.595-1.183 61.78-14.617 11.356-8.875 20.792-26.982 14.68-45.768-6.177-18.98-23.665-53.743-71.405-73.327a2.407 2.407 0 011.826-4.452c19.439 7.974 35.949 19.292 49.068 33.641 11.385 12.452 20.061 27.2 25.087 42.648 6.83 20.988-3.657 41.175-16.292 51.05-14.103 11.022-32.702 17.168-50.429 17.168z" fill="#6B6B9A"/><path d="M110.78 159.643c.053.085.098.177.151.263l-.177-.289c.006.007.019.013.026.026zm199.573-.027l-.178.289c.053-.085.098-.177.151-.263.007-.013.02-.02.026-.026h.001z" opacity=".3" fill="#6B184E"/><path d="M96.613 134.302c-8.425-8.542-19.126-14.871-30.54-18.522-2.131-.776-4.37-1.234-6.549-1.883-1.72-.352-3.575-.732-5.289-1.116-1.46-.349-1.11-2.513.4-2.367 1.49.165 3.174.391 4.675.589 3.555.513 7.282 1.494 10.73 2.543 2.882 1.011 6.069 2.211 8.787 3.575 7.592 3.789 14.628 8.777 19.704 15.729.867 1.258-.923 2.639-1.918 1.455v-.003zm-2.189 15.827c-12.729-5.491-27.62-8.79-40.926-3.391-1.405.555-2.356-1.442-1.02-2.18 10.089-5.382 22.417-4.956 33.018-1.337 3.549 1.223 6.926 2.749 10.13 4.824a1.205 1.205 0 01-1.202 2.084z" fill="#474867"/><path d="M119.806 94.961l31.851-24.953 36.806-28.827c-19.607-21.132-58.682-44.596-71.006-37.49-2.333 1.35-4.203 4.507-5.569 9.016-5.129 16.91-3.182 52.718 7.919 82.255l-.001-.001z" fill="#8E8FB3"/><path d="M119.806 94.96l31.851-24.952c-7.769-20.62-27.304-67.801-39.77-57.303-5.129 16.91-3.182 52.72 7.919 82.256z" fill="#6C709E"/><path d="M111.338 14.706c1.156-2.545 2.563-4.364 4.185-5.302 11.867-6.849 48.495 14.63 68.713 35.093l4.23-3.316c-19.609-21.132-58.684-44.596-71.007-37.49-2.662 1.536-4.725 5.446-6.121 11.015z" fill="#fff" opacity=".5"/><path d="M119.81 97.368a2.41 2.41 0 01-2.254-1.56c-6.598-17.55-10.52-38.72-10.762-58.08-.113-9.154.58-30.996 9.459-36.118 14.411-8.315 54.811 17.281 73.973 37.935a2.406 2.406 0 01-3.529 3.273C165.585 20.06 128.705-.014 118.658 5.778c-3.682 2.123-7.289 12.807-7.051 31.89.235 18.826 4.044 39.4 10.455 56.447a2.408 2.408 0 01-2.252 3.254v-.001z" fill="#6B6B9A"/><path d="M122.792 65.049c6.689-8.668 12.261-14.557 17.112-18.944 4.255-3.837 7.95-6.512 11.361-8.868-.767-4.106-25.864-27.309-30.067-20.261-1.257 2.107-2.175 5.335-2.748 9.184-1.793 11.928-.333 29.826 4.343 38.889h-.001z" fill="#F27E80"/><path d="M118.449 26.16c1.727-2.07 4.347-4.512 6.668-3.883 3.952 1.074 12.024 14.511 14.788 23.827 4.254-3.837 7.949-6.512 11.36-8.868-.766-4.106-25.864-27.309-30.067-20.261-1.257 2.107-2.174 5.335-2.747 9.184l-.002.002z" fill="#FF5C64"/><path d="M122.388 69.507l-1.735-3.356c-6.439-12.47-7.295-40.736-1.525-50.409.697-1.17 2.436-3.026 6.206-2.353 8.848 1.585 27.392 18.562 28.292 23.41l.285 1.533-1.283.886c-7.43 5.129-15.705 11.463-27.931 27.3l-2.309 2.99zm.872-51.3c-4.124 6.915-4.411 29.279.149 42.165 10.389-12.942 17.969-19.11 24.734-23.892-3.582-4.85-17.826-17.772-24.013-18.405-.279-.028-.761-.049-.87.132z" fill="#6B6B9A"/><path d="M213.451 44.563l43.239 46.015 18.688 19.885c17.057-28.49 24.836-65.698 21.075-82.338-.774-3.424-2.035-5.97-3.803-7.402-11.532-9.322-55.577 6.6-79.198 23.838l-.001.002z" fill="#8E8FB3"/><path d="M256.69 90.578l18.687 19.885c17.057-28.49 24.837-65.698 21.076-82.338-3.694-5.1-9.888-8.942-16.729 6.453-7.095 15.943-17.252 41.35-23.033 55.999l-.001.001z" fill="#6C709E"/><path d="M213.451 44.563l2.726 2.898c24.313-16.028 67.298-28.815 75.621-23.764 6.766 4.107 4.41 28.533.141 47.923 6.825-23.876 7.418-45.477.709-50.896-11.532-9.322-55.577 6.6-79.198 23.839h.001z" fill="#fff" opacity=".5"/><path d="M275.371 112.869a2.406 2.406 0 01-2.062-3.642c9.366-15.642 16.631-35.249 19.934-53.794 3.349-18.803 1.355-30.043-2.108-32.84-4.545-3.673-16.813-2.783-32.816 2.38-15.418 4.976-32.068 13.226-43.452 21.532a2.406 2.406 0 11-2.837-3.887c11.77-8.587 28.941-17.104 44.812-22.225 10.469-3.377 29.241-8.07 37.317-1.544 12.242 9.89 3.335 59.352-16.723 92.849a2.404 2.404 0 01-2.067 1.171h.002z" fill="#6B6B9A"/><path d="M234.289 33.482c.975.493.398 1.982-.65 1.68-7.212-2.088-14.214-3.46-20.624-4.013-7.372-.634-17.021-.936-28.068-.125a61.49 61.49 0 011.262-8.01c9.483-.08 17.668.863 23.702 1.927 7.52 1.323 16.029 4.322 24.378 8.542z" fill="#fff" opacity=".7"/><path d="M187.632 213.962c6.229.173 12.469-.006 18.674-.582 51.993-4.829 75.117-24.888 82.821-40.239.224-.458.444-.915.66-1.378.123-.266.235-.539.351-.801a34.26 34.26 0 00.859-2.073l.433-1.181c.014-.031.021-.06.029-.089.019-.066.045-.135.072-.196.106-.321.212-.634.311-.953.133-.382.25-.766.361-1.151.111-.356.209-.709.307-1.062.12-.434.242-.869.348-1.306.188-.767.366-1.551.53-2.334.052-.252.105-.505.146-.77.062-.268.11-.542.155-.821.063-.324.116-.661.171-.99 1.943-12.057.522-25.324-2.275-37.924-2.778-12.52-6.907-24.386-10.431-33.746 0 0-5.294-12.08-18.575-27.988-11.331-13.569-22.133-21.186-25.066-23.128-.505-.338-.777-.503-.777-.503-9.119-4.885-18.569-8.357-26.829-9.81-13.329-2.345-37.171-4.117-62.251 4.445-19.636 6.695-32.323 19.642-40.71 33.678-12.183 20.378-15.284 43.046-17.39 52.187-.567 2.438-5.475 8.705-8.526 17.891v.006a48.32 48.32 0 00-.66 2.157c-.097.353-.196.706-.285 1.065a31.23 31.23 0 00-.278 1.124c-.005.007-.01.015-.007.029-.07.319-.148.64-.217.973-.034.181-.073.368-.113.557a44.865 44.865 0 00-.337 1.95c-.066.401-.117.805-.168 1.215-.041.327-.081.666-.113 1.004-.014.149-.034.304-.047.458-.03.345-.055.688-.08 1.032-.032.427-.05.858-.062 1.288a40.333 40.333 0 00.031 3.965v.007c.023.395.045.788.084 1.194.013.113.018.229.032.351.035.391.08.793.124 1.197.078.637.164 1.278.271 1.928 3.26 19.773 27.348 40.651 68.012 52.91 13.113 3.953 26.721 6.035 40.412 6.415l.003-.001z" fill="#8E8FB3"/><path d="M93.711 179.115c11.537 11.083 29.55 21.17 53.192 28.338 13.213 4.006 26.926 6.125 40.727 6.508 6.23.173 12.468-.007 18.673-.582 51.995-4.829 75.119-24.888 82.821-40.239.225-.458.444-.915.661-1.379.122-.265.235-.538.351-.8.303-.685.6-1.372.858-2.074l.434-1.18c.014-.031.02-.06.028-.09.132-.388.265-.764.383-1.148.133-.382.251-.767.362-1.151.111-.356.209-.709.307-1.062.12-.434.241-.869.347-1.306.188-.767.367-1.552.53-2.334.052-.253.105-.506.146-.77.062-.269.11-.542.155-.821.063-.324.116-.661.172-.99a148.823 148.823 0 01-9.402 5.111c-14.848 7.418-35.347 14.518-57.516 12.389-33.603-3.216-46.288-24.793-52.107-31.256-3.542-3.929-19.386-7.094-24.766-.553-11.436 13.897-59.856 22.899-69.036-10.584a45.313 45.313 0 00-.66 2.156c-.098.354-.197.706-.286 1.065a31.23 31.23 0 00-.278 1.124c-.005.008-.01.016-.007.03-.07.319-.148.64-.217.973a23.92 23.92 0 01-.113.556 60.486 60.486 0 00-.337 1.95 30.04 30.04 0 00-.168 1.216 33.08 33.08 0 00-.113 1.004c-.014.148-.034.303-.047.458-.03.345-.055.688-.08 1.031-.032.427-.05.858-.062 1.288a40.364 40.364 0 00.031 3.966v.006c.023.395.045.789.084 1.194.013.114.018.23.032.351.035.391.08.794.124 1.198.078.636.164 1.277.271 1.928 1.35 8.201 6.284 16.59 14.503 24.476l.003.003z" fill="#fff"/><path d="M292.844 162.978c-.098.432-.217.855-.335 1.279-.098.352-.197.703-.309 1.061-.108.387-.224.774-.361 1.152-.116.387-.252.758-.383 1.15-.003.03-.013.058-.022.086-.146.399-.292.79-.438 1.183a31.218 31.218 0 01-.857 2.079c-.119.262-.232.53-.351.8-.218.458-.436.917-.661 1.375-7.7 15.348-30.827 35.407-82.823 40.235-6.204.582-12.443.757-18.668.587-13.805-.389-27.519-2.505-40.727-6.511-23.65-7.168-41.658-17.256-53.2-28.337-8.215-7.89-13.148-16.273-14.499-24.48a37.782 37.782 0 01-.268-1.923c-.046-.401-.09-.81-.128-1.196-.01-.127-.023-.238-.034-.356-.037-.402-.06-.801-.076-1.192l-.006-.007c-.013-.258-.02-.517-.034-.768 2.514 3.949 18.44 35.446 67.348 44.207 100.064 17.926 135.003-15.764 146.836-30.422l-.004-.002z" fill="#D3D4E2"/><path d="M236.163 35.81c-9.289-4.337-18.915-7.778-29.029-9.09-25.548-3.32-55.549-.673-77.092 14.508-18.198 12.996-28.293 34.12-33.617 55.348-1.357 5.206-2.535 11.14-3.63 16.458-.36 1.845-.76 3.826-1.684 5.421-1.953 3.56-3.946 6.826-5.55 10.482-2.59 5.723-4.13 11.846-4.266 18.107-.32 12.311 5.66 22.025 14.347 30.353 18.341 17.079 42.948 26.054 66.964 31.933 4.567.901 9.282 1.889 13.835 2.727a1.206 1.206 0 01-.265 2.39c-9.576-.422-19.069-1.729-28.29-4.302-28.265-7.873-72.809-28.747-71.912-63.172.153-11.318 4.423-20.903 10.035-30.433l.32-.586.257-.533c.55-1.195.617-2.217.912-3.482l1.122-5.55c4.498-22.487 12.717-45.45 29.48-61.784C137.669 25.22 166.856 19.7 193.493 20.79c7.664.438 15.431 1.356 22.815 3.507 7.436 2.195 14.44 5.46 20.988 9.39 1.252.852.288 2.72-1.137 2.12l.004.003zm46.121 50.134c11.998 24.994 22.778 65.892 7.641 91.328-10.697 17.174-30.012 26.691-48.819 32.244-11.282 3.123-22.943 5.428-34.688 5.062-1.368-.057-1.647-2.018-.265-2.387 7.534-1.871 15.084-2.934 22.512-4.657 6.307-1.34 13.04-3.277 19.085-5.556 14.639-5.601 29.093-13.956 37.533-27.503 11.282-19.444 6.562-44.828.986-65.522-2.004-7.368-4.268-14.683-6.239-22.161a1.21 1.21 0 012.252-.848h.002z" fill="#6B6B9A"/><path d="M116.858 78.678c-.969-1.81 9.441-20.163 23.06-14.95 4.989 1.91 3.784 6.353.721 7.546-2.915 1.137-7.259.701-10.98 1.926-7.255 2.387-11.831 7.287-12.801 5.478zm116.505 11.99c1.379-1.799-6.686-23.645-22.45-20.395-5.775 1.19-5.255 6.243-2.132 8.09 2.972 1.76 7.782 2.057 11.616 4.055 7.478 3.895 11.588 10.048 12.966 8.25z" fill="#474867"/><path d="M252.386 47.579c6.693 6.337 14.504 14.367 24.786 32.77a26.205 26.205 0 001.954-2.909c4.392-7.428 7.586-19.223 8.543-29.216.6-6.22.344-11.738-1.032-15.079-3.18-7.746-32.798 10.517-34.251 14.432v.002z" fill="#F27E80"/><path d="M252.386 47.579c6.693 6.337 14.504 14.367 24.786 32.77a26.205 26.205 0 001.954-2.909c-.387-7.245-5.544-15.443-7.329-21.672-3.704-12.92 6.477-20.064 9.996-18.505 2.086.926 4.788 7.906 5.876 10.96.6-6.218.344-11.737-1.032-15.078-3.18-7.746-32.798 10.517-34.251 14.432v.002z" fill="#FF5C64"/><path d="M277.17 82.755c-.061 0-.121-.003-.183-.006a2.407 2.407 0 01-1.918-1.227c-10.017-17.934-17.514-25.738-24.334-32.195a2.407 2.407 0 01-.602-2.583c1.279-3.447 11.349-9.402 13.355-10.561 4.665-2.695 13.37-7.232 19.248-7.333 4.077-.067 5.597 2.09 6.129 3.383 4.371 10.643-1.121 38.453-9.794 49.594a2.405 2.405 0 01-1.898.928h-.003zm-21.53-35.396c6.211 6.009 13.045 13.55 21.693 28.415 6.833-11.829 10.208-34.093 7.078-41.713-.116-.282-.74-.365-1.102-.39-6.671-.442-23.164 9.553-27.669 13.688z" fill="#6B6B9A"/><path d="M223.936 140.127c.945-10.442-5.648-19.573-14.726-20.395-9.077-.821-17.202 6.978-18.147 17.421-.945 10.443 5.648 19.574 14.726 20.395 9.077.822 17.202-6.978 18.147-17.421z" fill="#000"/><path d="M208.348 143.2c.4-4.42-1.75-8.227-4.803-8.503-3.052-.276-5.851 3.083-6.251 7.502-.4 4.42 1.751 8.227 4.803 8.503 3.052.276 5.851-3.083 6.251-7.502z" fill="#fff"/><path d="M216.954 141.71c2.028-.521 2.896-3.964 1.938-7.691-.957-3.726-3.378-6.324-5.406-5.803-2.028.521-2.896 3.964-1.938 7.691.957 3.726 3.377 6.324 5.406 5.803z" fill="#fff" opacity=".35"/><path d="M141.832 129.966c.378-10.474-6.049-19.208-14.357-19.508-8.307-.3-15.349 7.947-15.727 18.42-.379 10.474 6.049 19.207 14.356 19.508 8.308.3 15.349-7.947 15.728-18.42z" fill="#000"/><path d="M135.732 133.943c.083-4.434-2.115-8.071-4.91-8.124-2.795-.052-5.128 3.499-5.212 7.933-.083 4.434 2.115 8.071 4.91 8.124 2.795.053 5.128-3.499 5.212-7.933z" fill="#fff"/><path d="M123.431 126.185c1.151-3.652.6-7.08-1.23-7.656-1.83-.577-4.246 1.916-5.397 5.568-1.15 3.652-.6 7.08 1.23 7.656 1.83.577 4.247-1.916 5.397-5.568z" fill="#fff" opacity=".35"/><path d="M262.053 156.358c13.212-8.374 31.819-9.587 46.736-5.865 1.035.248 2.064.516 3.092.782a1.203 1.203 0 01-.48 2.353c-1.765-.268-3.663-.594-5.426-.895-3.222-.365-6.709-.69-9.967-.788-2.96-.014-6.256.055-9.185.343-8.075.823-16.117 2.751-23.509 6.122-1.341.735-2.544-1.17-1.26-2.05l-.001-.002zm-2.855 15.467c14.81-2.751 31.943.947 42.141 12.582.978 1.152-.632 2.702-1.741 1.661-5.232-4.896-11.742-8.151-18.652-9.89-6.946-1.748-14.302-2.25-21.449-1.972-1.461.05-1.739-2.065-.298-2.381h-.001z" fill="#474867"/><path d="M173.796 158.403s-.166 6.62-1.77 13.042c-1.64 6.545-4.781 12.877-10.78 11.777-4.403-.801-6.962-5.284-8.442-10.363-2.214-7.566-2.042-16.45-2.042-16.45l23.034 1.994z" fill="#131320"/><path d="M172.028 171.443c-1.64 6.546-4.781 12.878-10.78 11.778-4.403-.801-6.962-5.285-8.442-10.363a10.528 10.528 0 013.102-.745 10.556 10.556 0 016.315 1.447 10.555 10.555 0 015.972-2.492c1.327-.112 2.62.024 3.833.375z" fill="#F27E80"/><path d="M162.556 185.45c-.555 0-1.12-.052-1.692-.156-12.367-2.264-12.26-26.206-12.208-28.928a2.106 2.106 0 012.105-2.064h.041a2.107 2.107 0 012.065 2.145c-.12 6.404 1.219 23.326 8.756 24.705 1.439.264 2.63-.038 3.752-.951 4.829-3.923 6.198-17.106 6.318-21.854a2.106 2.106 0 012.104-2.052h.054a2.103 2.103 0 012.052 2.157c-.048 1.944-.675 19.167-7.871 25.016-1.613 1.311-3.481 1.983-5.476 1.983v-.001z" fill="#131320"/><path d="M144.938 152.427s-.292 7.325 3.365 9.259c5.571 2.949 10.577-.408 13.172-3.457 0 0 4.269 8.377 12.525 5.539 4.828-1.66 7.086-7.652 7.086-7.652l-20.406-8.355-15.742 4.664v.002z" fill="#fff"/><path d="M148.305 161.683c5.061 3.533 10.574-.402 13.171-3.451 0 0 5.058 9.318 12.942 6.263 2.774-1.078 3.625-3.609 3.808-5.772-10.917 4.123-16.502-12.161-16.502-12.161-2.883 3.39-9.758 10.954-15.429 10.013-.165 1.794.164 3.826 2.01 5.11v-.002z" fill="#D3D4E2"/><path d="M162.122 148.775c-.182 2.956.187 6.121 1.423 8.825 1.137 2.976-3.368 4.389-4.129 1.289-.563-2.661-.492-5.375-.025-8.02.158-.864.341-1.673.607-2.557a1.089 1.089 0 011.356-.729c.524.156.835.671.768 1.192z" fill="#131320"/><path d="M174.155 148.339c-.611 2.233-9.189 5.647-13.743 5.092-4.889-.597-9.696-5.148-10.069-7.406-.436-2.643 3.997-5.257 13.584-3.831 7.843 1.166 10.896 3.7 10.228 6.147v-.002z" fill="#131320"/><path d="M163.492 144.244c.112.684-1.703 1.392-3.108 1.304-.797-.051-3.659-.264-3.783-1.012-.123-.75.723-1.381 3.388-1.448 2.424-.061 3.389.472 3.501 1.156h.002z" fill="#fff" opacity=".7"/><path d="M146.235 152.478c.457 2.496.876 5.505 2.71 7.098 4.943 2.799 9.822-.885 12.647-5l1.81 2.673c4.943 7.729 12.61 6.144 16.471-1.589a1.305 1.305 0 011.789-.64c.574.296.833.96.639 1.554-.785 2.305-1.886 4.286-3.525 6.089-5.973 6.411-15.507 4.13-19.226-3.452l3.57.419c-1.479 1.875-3.361 3.456-5.677 4.482-4.633 2.234-11.966.618-13.39-4.82-.706-2.338-.764-4.549-.409-6.919a1.306 1.306 0 011.499-1.076 1.317 1.317 0 011.093 1.18l-.001.001z" fill="#131320"/><path d="M171.777 287.558H53.227a7.388 7.388 0 01-7.39-7.388v-5.431h111.487l14.453 12.819z" fill="#BBBCE1"/><path d="M171.775 287.557H53.225a7.39 7.39 0 01-7.386-7.387v-5.432h.066a7.39 7.39 0 007.32 6.413h111.331l7.219 6.406z" fill="#D2D2EB"/><path d="M171.777 289.965H53.226c-5.401 0-9.795-4.394-9.795-9.794v-5.431a2.407 2.407 0 012.407-2.407h111.486c.588 0 1.156.216 1.596.607l14.453 12.819a2.408 2.408 0 01-1.596 4.207v-.001zM48.244 277.146v3.024a4.987 4.987 0 004.982 4.981h112.212l-9.027-8.005H48.244z" fill="#262640"/><path d="M157.325 274.738l-20.321-.807-85.927-3.417h-.047a13.696 13.696 0 01-12.175-7.417L2.46 192.402a13.404 13.404 0 014.193-8.933 13.383 13.383 0 019.162-3.664l93.5-.415a20.945 20.945 0 0119.304 12.597l20.628 47.414 10.503 24.146a9.803 9.803 0 01-2.425 11.189v.002z" fill="#BBBCE1"/><path d="M157.326 274.738l-20.321-.807c2.334-11.087 6.731-30.963 6.731-30.963s4.824 3.561 5.511-3.567l10.504 24.146a9.807 9.807 0 01-2.425 11.189v.002z" fill="#BBBCE1"/><path d="M157.325 277.146l-.096-.001-106.196-4.227h-.017a16.023 16.023 0 01-14.302-8.715L.322 193.506a2.405 2.405 0 01-.262-1.252c.52-8.294 7.435-14.821 15.746-14.857l93.496-.414h.105a23.342 23.342 0 0121.422 14.042l31.129 71.568a12.195 12.195 0 01-3.021 13.936c-.443.4-1.017.62-1.612.62v-.003zm-106.247-9.042c.031 0 .063 0 .096.003l105.187 4.187a7.387 7.387 0 001.183-7.784l-31.129-71.567a18.53 18.53 0 00-17.008-11.149h-.083l-93.496.414c-5.574.025-10.248 4.242-10.906 9.716l36.07 70.074a11.232 11.232 0 0010.024 6.106h.062z" fill="#262640"/><path d="M157.325 274.207l-111.487.493h-.066a13.67 13.67 0 01-12.157-7.411l-5.054-11.815-25.392-59.349c-2.448-5.732 1.739-12.109 7.97-12.133l92.472-.409a21.643 21.643 0 0119.953 13.011l20.17 46.374 13.59 31.239h.001z" fill="#D2D2EB"/><path d="M157.327 274.207l-111.488.493h-.066a13.67 13.67 0 01-12.157-7.411l-5.053-11.815c7.784 4.86 23.731 10.744 54.688 9.613 39.317-1.438 56.149-17.175 60.486-22.12l13.59 31.239v.001z" fill="#BBBCE1"/><path d="M103.611 182.679c8.769-1.283 18.811 4.625 20.781 13.557.208.959-1.106 1.522-1.655.72-3.45-4.815-7.692-9.006-13.337-11.016-1.839-.694-3.779-1.148-5.798-1.458-1.021-.155-1.013-1.658.007-1.802l.002-.001zm34.31 43.905c7.471 15.454 15.101 30.859 21.639 46.737.639 1.529-.567 3.32-2.225 3.294l-111.487.495a16.115 16.115 0 01-8.463-2.254c-2.593-1.549-4.763-3.847-6.12-6.561-5.694-12.915-11.784-27.367-17.405-40.404-2.817-6.733-8.56-20.299-11.38-27.032-.46-1.213-1.882-4.176-2.149-5.481-1.42-5.396 1.86-11.438 7.165-13.131 1.403-.488 2.917-.625 4.384-.572 7.345.149 14.67.368 22.001 1.012 1.465.156 1.438 2.255.01 2.407-7.326.708-14.648.992-21.992 1.207-4.285-.315-7.902 3.654-6.784 7.881.178.83 1.618 3.844 1.958 4.712 2.932 6.709 8.764 20.193 11.688 26.9 5.592 13.074 11.744 27.448 17.198 40.493 1.456 3.052 5.637 6.107 9.868 6.01l111.486-.494-2.195 3.366a187.34 187.34 0 01-2.652-5.854c-4.277-9.824-8.159-19.814-12.115-29.772a881.993 881.993 0 01-4.637-11.999c-.526-1.43 1.527-2.297 2.207-.96z" fill="#262640"/><path d="M157.325 274.74h74.102a1.58 1.58 0 011.578 1.579c0 6.203-5.036 11.239-11.24 11.239h-57.052a7.39 7.39 0 01-7.388-7.388v-5.431.001z" fill="#BBBCE1"/><path d="M233.002 276.32c0 3.104-1.257 5.913-3.291 7.947a11.2 11.2 0 01-7.947 3.291h-57.052a7.39 7.39 0 01-7.387-7.387v-5.432h.066a7.389 7.389 0 007.321 6.413h57.052c3.104 0 5.913-1.257 7.947-3.291a11.331 11.331 0 002.172-3.056c.65.199 1.119.8 1.119 1.516v-.001z" fill="#D2D2EB"/><path d="M221.766 289.965h-57.053c-5.401 0-9.795-4.394-9.795-9.794v-5.431a2.407 2.407 0 012.407-2.407h74.1a3.991 3.991 0 013.986 3.986c0 7.524-6.123 13.646-13.647 13.646h.002zm-62.034-12.819v3.024a4.987 4.987 0 004.981 4.981h57.053c4.591 0 8.377-3.522 8.795-8.005h-70.829z" fill="#262640"/><path d="M214.132 268.812c-2.918-1.09-6.046-2.509-9.385-4.29-1.221 1.876-6.207 10.653-19.021 9.281-5.606-.601-12.778-4.138-13.824-14.43-.193-1.956-.175-4.157.126-6.63.685-5.703 2.731-10.708 5.847-14.81 8.464-11.147 24.856-15.599 43.481-9.06 0 0 2.263-4.428 2.876-9.318l32.19 9.114.12.036s1.329 56.438-42.41 40.107z" fill="#8E8FB3"/><path d="M214.132 268.812c-2.918-1.09-6.046-2.509-9.385-4.29-1.221 1.876-6.207 10.653-19.021 9.281-5.606-.601-12.778-4.138-13.825-14.43 2.087 2.803 6.106 6.388 12.91 6.177 14.767-.456 16.91-13.257 23.497-12.728 6.58.529 15.94 12.669 32.195 4.59 10.004-4.968 14.245-17.156 15.917-28.743l.12.036s1.33 56.438-42.409 40.107h.001z" fill="#6C709E"/><path d="M214.131 268.812c-2.918-1.089-6.046-2.509-9.385-4.29-1.22 1.876-6.207 10.653-19.021 9.282-.174-.018-.355-.043-.529-.066-.018 0-.03 0-.043-.007-.162-.024-.33-.047-.493-.078a9.71 9.71 0 01-.547-.102 6.024 6.024 0 01-.427-.091c-.247-.054-.493-.12-.739-.186-.151-.042-.308-.09-.457-.132-.5-.157-1.004-.337-1.499-.548-.102-.036-.198-.084-.3-.126a15.26 15.26 0 01-1.836-.968c-.162-.102-.325-.204-.487-.319a10.697 10.697 0 01-.559-.397 7.347 7.347 0 01-.541-.427 12.105 12.105 0 01-.529-.464c-.09-.078-.174-.162-.258-.24a12.863 12.863 0 01-.746-.782c-.084-.097-.163-.187-.24-.282-.398-.47-.764-.981-1.113-1.528-.096-.157-.192-.319-.289-.482a14.083 14.083 0 01-.703-1.383 11.049 11.049 0 01-.271-.649c-.018-.048-.036-.097-.061-.145a17.876 17.876 0 01-.24-.667c-.047-.156-.096-.307-.144-.47a5.01 5.01 0 01-.127-.427l-.054-.199a6.711 6.711 0 01-.126-.493c-.018-.072-.03-.144-.048-.21a10.7 10.7 0 01-.127-.602 16.365 16.365 0 01-.144-.842l-.054-.38-.091-.734c2.094 2.803 6.112 6.383 12.91 6.171 14.767-.457 16.91-13.257 23.497-12.728 1.04.084 2.147.456 3.338.992.301 4.885.47 10.016 2.485 14.997l-.002.002z" fill="#E8E8E8"/><path d="M214.132 268.812c-2.918-1.09-6.047-2.509-9.385-4.29-1.221 1.876-6.208 10.653-19.022 9.281-6.67-.716-15.562-5.594-13.697-21.06.685-5.703 2.73-10.708 5.847-14.81 6.214-5.215 15.298-9.577 25.477-2.677 12.037 8.169 5.816 21.314 10.78 33.556z" fill="#fff"/><path d="M214.131 268.812c-2.918-1.089-6.046-2.509-9.385-4.29-1.22 1.876-6.207 10.653-19.021 9.282-.174-.018-.355-.043-.529-.066-.018 0-.03 0-.043-.007-.162-.024-.33-.047-.493-.078a9.71 9.71 0 01-.547-.102 6.024 6.024 0 01-.427-.091c-.247-.054-.493-.12-.739-.186-.151-.042-.308-.09-.457-.132-.5-.157-1.004-.337-1.499-.548-.102-.036-.198-.084-.3-.126a15.26 15.26 0 01-1.836-.968c-.162-.102-.325-.204-.487-.319a10.697 10.697 0 01-.559-.397c-.181-.138-.367-.276-.541-.427a12.105 12.105 0 01-.529-.464c-.09-.078-.174-.162-.258-.24a12.863 12.863 0 01-.746-.782c-.084-.097-.163-.187-.24-.282-.398-.47-.764-.981-1.113-1.528-.096-.157-.192-.319-.289-.482a14.083 14.083 0 01-.703-1.383 11.049 11.049 0 01-.271-.649c-.018-.048-.036-.097-.061-.145a17.876 17.876 0 01-.24-.667c-.047-.156-.096-.307-.144-.47a5.01 5.01 0 01-.127-.427l-.054-.199a6.711 6.711 0 01-.126-.493c-.018-.072-.03-.144-.048-.21a10.7 10.7 0 01-.127-.602 16.365 16.365 0 01-.144-.842l-.054-.38-.091-.734c2.094 2.803 6.112 6.383 12.91 6.171 14.767-.457 16.91-13.257 23.497-12.728 1.04.084 2.147.456 3.338.992.301 4.885.47 10.016 2.485 14.997l-.002.002z" fill="#D3D4E2"/><path d="M257.741 228.678c1.137 10.664-.618 21.606-5.616 31.177-10.77 19.978-31.62 16.435-48.508 6.792l3.149-.81c-5.023 8.618-14.622 12.191-24.183 9.83-13.614-3.582-15.212-18.303-11.476-29.861 6.021-18.642 25.999-25.331 43.866-21.228 2.44.528 4.83 1.228 7.18 2.029l-2.939 1.175c1.245-1.85 2.328-4.034 3.117-6.15.593-1.108.424-3.485 2.207-3.118.545.151.899.651.887 1.192-.075 3.531-.745 6.919-1.924 10.266a2.394 2.394 0 01-2.94 1.176c-2.17-.737-4.366-1.382-6.595-1.865-6.583-1.408-13.619-1.485-20.038.479-8.513 2.501-15.589 9.031-18.245 17.537-2.803 8.683-2.511 21.058 8.118 23.711 7.628 1.83 14.984-.907 18.934-7.8a2.386 2.386 0 013.148-.81c3 1.498 6.039 2.884 9.141 4.007 3.105 1.105 6.269 1.947 9.429 2.412 23.733 3.432 28.639-21.881 30.884-40.086.11-1.42 2.221-1.493 2.406-.056l-.002.001z" fill="#6B6B9A"/><path d="M209.176 253.776c-.325 4.11-.765 7.904-2.296 11.867a2.422 2.422 0 01-3.163 1.374c-1.425-.553-1.968-2.363-1.097-3.614.919-1.346 1.706-3.013 2.392-4.716a54.607 54.607 0 001.796-5.315c.395-1.381 2.456-1.02 2.368.402v.002z" fill="#474867"/><path d="M232.298 236.233c-3.827-2.385-7.843-3.517-12.044-5.216-3.194-1.452-.837-6.039 2.205-4.278 3.697 2.321 7.978 4.533 11.254 7.548.502.439.554 1.201.115 1.705a1.21 1.21 0 01-1.529.241h-.001z" fill="#6B6B9A"/><path d="M267.695 339.158c-2.972 11.146-7.887 24.098-17.295 22.799-3.664-.5-18.39-22.186-21.385-31.431-3.567-11.027-4.662-20.532-3.983-28.581 2.665-31.732 32.948-40.762 48.348-30.644l24.039-27.864c4.873 8.386 9.155 20.567 10.96 33.465 3.868 27.527-3.562 58.291-40.683 62.256h-.001z" fill="#8E8FB3"/><path d="M267.695 339.158c-2.972 11.146-7.887 24.098-17.295 22.799-3.664-.5-18.39-22.186-21.385-31.431-3.567-11.027-4.662-20.532-3.983-28.581 5.516-.999 12.663.199 21.386 6.617 25.687 18.913 39.419 11.815 47.45 6.491 9.409-6.238 13.079-24.694 14.51-38.151 3.868 27.527-3.562 58.291-40.683 62.256z" fill="#6C709E"/><path d="M272.718 272.309c-22.052-8.834-43.191 6.121-45.108 29.236-1.011 9.972.994 20.23 4.208 29.633 3.306 7.746 8.073 14.981 13.057 21.79 1.792 2.298 3.853 5.079 6.01 6.631a.288.288 0 00-.092-.022c-.022-.003-.1 0-.026.004l.244.02c5.954.518 9.262-6.712 11.242-11.407 1.245-3.095 2.231-6.353 3.118-9.656a2.42 2.42 0 012.07-1.773c4.799-.578 9.528-1.587 13.965-3.306 29.881-11.344 28.952-50.058 19.902-75.529-1.623-4.621-3.586-9.123-5.984-13.311-1.498-2.748 2.484-5.137 4.178-2.389 9.721 17.621 14.305 39.749 11.199 59.711-3.815 23.421-19.38 37.164-42.751 39.609 0 .002 2.076-1.779 2.069-1.77-2.537 8.896-6.7 23.876-17.833 24.663-.791.007-1.61.007-2.392-.16-1.136-.245-2.014-.956-2.863-1.662-4.771-4.528-8.356-10.069-11.936-15.506-3.074-4.944-6.134-9.961-8.149-15.499-2.914-8.931-4.78-18.394-4.431-27.83.561-18.33 11.64-34.838 30.396-38.278 3.675-.666 7.493-.775 11.19-.031 3.673.756 7.267 2.306 10.037 4.822 1.022.936-.097 2.574-1.322 2.011l.002-.001z" fill="#6B6B9A"/><path d="M259.592 348.499c.171 1.437 1.204 8.386-3.459 12.399-8.15 7.015-30.007 3.305-40.185-16.787-7.196-14.206-6.916-31.097 6.477-36.467 9.129-3.66 20.711 6.964 25.654 19.834 0 0 2.257 3.984 6.139 9.606 4.582 6.635 5.372 11.416 5.372 11.416l.002-.001z" fill="#fff"/><path d="M256.132 360.898c-6.828 5.877-23.275 4.223-34.41-8.277 10.612 7.574 23.131 8.151 28.039 2.545 7.597-8.687-7.489-37.844-7.869-38.579a42.028 42.028 0 016.184 10.889s2.256 3.988 6.142 9.607c4.584 6.634 5.373 11.417 5.373 11.417.169 1.438 1.202 8.386-3.459 12.398z" fill="#D3D4E2"/><path d="M260.787 348.357c4.177 17.185-12.952 21.271-26.049 16.276-11.888-4.247-20.504-14.798-24.219-26.629-3.454-10.342-2.989-24.239 7.117-30.782 2.884-1.881 6.406-3.215 9.865-2.782 8.021.944 14.606 7.494 18.469 14.087 1.493 2.673 2.656 5.529 3.233 8.518a1.223 1.223 0 01-2.246.863c-4.304-6.735-8.983-14.228-16.449-17.55-2.624-1.07-5.215-1.254-7.523-.138-7.226 3.052-9.67 10.801-8.919 18.206 1.322 13.331 9.643 26.585 22.452 31.449 7.623 3.077 20.274 3.192 21.567-7.146.22-1.312.304-2.641.314-4.088a1.211 1.211 0 011.221-1.204 1.215 1.215 0 011.169.919l-.002.001zm8.749-19.285c.37 3.476.575 6.888.548 10.396-.127 3.2-4.777 3.163-4.848-.043.286-1.805.834-3.568 1.117-5.411.302-1.642.567-3.318.78-4.965.189-1.408 2.251-1.374 2.403.025v-.002zM165.525 236.82c-3.923-2.191-8.136-4.305-12.356-5.736-3.239-1.249-1.218-5.928 1.915-4.415 4.294 2.349 8.057 5.136 11.821 8.179 1.13.944-.114 2.711-1.38 1.972z" fill="#6B6B9A"/><path d="M240.93 339.882c2.877 4.436 3.418 10.212.247 13.147-4.392 4.062-11.081-.116-13.822-4.344-2.741-4.227-3.828-12.04 1.674-14.391 3.972-1.698 9.025 1.152 11.901 5.588zm-1.919-14.57c1.434 2.212 1.708 4.989.123 6.554-1.585 1.566-4.964.808-6.892-2.165-1.928-2.975-1.241-6.368.835-7.176 2.077-.808 4.501.575 5.936 2.787h-.002zm-10.216-.416c1.227 2.468 1.181 5.384-.651 6.823-1.831 1.438-5.249.251-6.9-3.067-1.649-3.318-.533-6.762 1.719-7.354 2.252-.592 4.606 1.131 5.832 3.598zm-4.769 9.145c.828 1.667.797 3.637-.44 4.608-1.238.972-3.547.169-4.66-2.072-1.114-2.242-.36-4.568 1.161-4.968 1.522-.4 3.11.764 3.94 2.431l-.001.001z" fill="#F27E80"/><path d="M168.888 283.208a2.059 2.059 0 10-.002-4.118 2.059 2.059 0 00.002 4.118zm19.885-4.117h-10.864v4.117h10.864v-4.117zm29.54 1.205h-3.18a.971.971 0 000 1.941h3.18a.97.97 0 000-1.941z" fill="#262640"/><path d="M193.57 265.045c.443 1.277 2.01 4.973 3.64 4.468 3.143-1.311 5.188 3.194 2.128 4.695-.689.359-1.545.194-2.265.115a5.54 5.54 0 01-3.283-1.601c-1.404-1.447-1.912-3.104-2.299-4.889-.116-1.176-.969-3.475.842-3.69a1.216 1.216 0 011.237.901v.001zm-12.069.042c.452 2.255 1.303 5.819 3.889 6.275 3.782.716 2.075 6.158-1.457 4.587-4.271-1.807-5.148-6.769-4.838-10.855.134-1.462 2.264-1.453 2.405-.007h.001z" fill="#474867"/><path d="M238.737 291.311c-.496-3.753 3.743-11.798 10.226-15.162 10.023-5.203 18.578-2.814 19.569-1.006 1.132 2.066-5.29 2.81-16.529 9.26-7.185 4.123-12.665 11.468-13.266 6.907v.001z" fill="#fff" opacity=".5"/><path d="M80.546 226.653c1.805 1.639 3.289 3.587 4.206 5.673 2.576 5.857-1.348 8.154-7.425 8.164-6.08.011-12.017-2.268-14.593-8.125-.917-2.087-1.147-4.037-.785-5.68a17.388 17.388 0 01-1.52-1.369c-2.746-2.782-3.994-5.854-2.79-6.863 1.207-1.008 4.408.43 7.154 3.212.249.252.486.509.71.763 1.014-.441 2.216-.684 3.58-.687 1.364-.002 2.777.237 4.177.673 0-.254.012-.511.039-.764.294-2.788 2.227-4.235 4.318-3.232 2.088 1.003 3.542 4.074 3.244 6.862a5.656 5.656 0 01-.313 1.372l-.002.001z" fill="#fff"/><path d="M15.845 189.393c12.986-2.599 68.183-3.761 80.681-.774 12.498 2.985-91.555 2.951-80.681.774z" fill="#fff" opacity=".5"/><path d="M54.862 74.812a28.11 28.11 0 003.988-17.59C57.257 41.71 43.39 30.428 27.88 32.02 12.366 33.612 1.083 47.48 2.675 62.99c1.593 15.513 15.46 26.796 30.97 25.203a28.11 28.11 0 0011.776-3.951l13.066 2.93-3.625-12.36h-.001z" fill="#fff"/><path d="M28.434 37.421c14.49-1.488 27.542 8.262 30.497 22.197.004-.995-.04-1.999-.143-3.012-1.593-15.512-15.46-26.795-30.97-25.203-15.514 1.593-26.799 15.458-25.205 30.97.104 1.018.265 2.015.471 2.994.054-14.252 10.855-26.458 25.35-27.946z" fill="#fff" opacity=".5"/><path d="M30.706 90.829c-7.035 0-13.801-2.395-19.331-6.896C5.01 78.753 1.044 71.406.205 63.243c-.838-8.162 1.553-16.162 6.731-22.526 5.18-6.364 12.526-10.33 20.69-11.168 8.163-.838 16.162 1.552 22.526 6.731 6.363 5.179 10.33 12.526 11.168 20.689.654 6.37-.648 12.629-3.772 18.173l3.323 11.331a2.485 2.485 0 01-2.927 3.123L45.832 86.88A30.442 30.442 0 0133.9 90.665c-1.069.11-2.135.164-3.194.164zm.106-56.477c-.89 0-1.783.045-2.678.138-6.843.702-13.003 4.028-17.344 9.363-4.341 5.335-6.346 12.042-5.644 18.884.703 6.843 4.028 13.003 9.363 17.344 5.335 4.341 12.046 6.346 18.884 5.644A25.514 25.514 0 0044.13 82.12a2.485 2.485 0 011.834-.302l8.954 2.008-2.44-8.316a2.482 2.482 0 01.265-1.994 25.513 25.513 0 003.637-16.04c-.702-6.842-4.028-13.002-9.363-17.343-4.637-3.774-10.309-5.78-16.205-5.78l-.001-.002z" fill="#6B6B9A"/><path d="M55.02 74.54c-7.734 6.542-18.388 9.406-28.967 6.773-11.734-2.92-20.38-11.855-23.488-22.699-.075 1.438-.042 2.9.11 4.376 1.593 15.513 15.46 26.796 30.971 25.203a28.109 28.109 0 0011.775-3.951l13.067 2.93-3.625-12.36c.054-.09.104-.181.159-.271h-.002z" fill="#474867" opacity=".3"/><path d="M39.791 52.178c-2.443-2.443-6.405-2.005-8.849.438l-.38.38-.382-.38c-2.442-2.443-6.404-2.882-8.849-.438a6.259 6.259 0 000 8.85l.381.38 7.683 7.683a1.65 1.65 0 002.333 0l7.682-7.683.381-.38a6.259 6.259 0 000-8.85z" fill="#FF0068"/><path d="M196.192 389c73.061 0 132.289-2.825 132.289-6.309 0-3.485-59.228-6.31-132.289-6.31-73.061 0-132.289 2.825-132.289 6.31 0 3.484 59.228 6.309 132.289 6.309z" fill="#000072" opacity=".2"/></g><defs><clipPath id="clip0_1801_393"><path fill="#fff" d="M0 0h390.789v389H0z"/></clipPath></defs></svg>