<svg width="391" height="389" viewBox="0 0 391 389" fill="none" xmlns="http://www.w3.org/2000/svg">
<g clip-path="url(#clip0_1801_393)">
<path d="M195.969 324.588C193.084 335.405 188.316 347.974 179.185 346.713C175.63 346.229 161.339 325.183 158.432 316.211C154.971 305.51 153.907 296.286 154.567 288.476C157.153 257.681 186.54 248.919 201.486 258.738L224.814 231.697C229.542 239.835 233.699 251.656 235.45 264.172C239.205 290.886 231.994 320.741 195.969 324.588Z" fill="#8E8FB3"/>
<path d="M195.969 324.587C193.084 335.405 188.316 347.973 179.185 346.713C175.63 346.229 161.339 325.182 158.432 316.21C154.971 305.509 153.907 296.286 154.567 288.475C159.92 287.506 166.855 288.668 175.32 294.897C200.247 313.251 213.576 306.362 221.369 301.196C230.5 295.142 234.06 277.232 235.45 264.173C239.205 290.887 231.994 320.742 195.969 324.589V324.587Z" fill="#6C709E"/>
<path d="M200.824 259.743C189.003 254.835 175.147 257.432 166.323 266.784C160.298 273.003 157.387 281.876 156.935 290.49C156.544 299.378 158.334 308.457 161.22 316.816C165.149 325.752 170.714 334.218 176.949 341.743C177.824 342.71 178.652 343.671 179.707 344.359C179.722 344.369 179.774 344.403 179.68 344.355C179.649 344.343 179.615 344.336 179.583 344.332C179.56 344.328 179.481 344.332 179.552 344.334C180.062 344.405 180.648 344.407 181.16 344.346C188.418 343.197 191.864 330.178 193.645 323.966C193.913 322.978 194.755 322.297 195.715 322.192C200.367 321.631 204.95 320.654 209.249 318.989C238.207 307.993 237.288 270.467 228.522 245.782C226.946 241.301 225.044 236.935 222.719 232.876C221.222 230.126 225.204 227.741 226.897 230.488C236.34 247.603 240.79 269.092 237.775 288.481C234.068 311.241 218.937 324.602 196.226 326.978C196.226 326.979 198.3 325.198 198.295 325.207C195.824 333.873 191.771 348.429 180.924 349.196C180.149 349.202 179.349 349.202 178.584 349.038C177.469 348.798 176.607 348.103 175.774 347.41C171.138 343.01 167.656 337.629 164.178 332.346C161.191 327.544 158.219 322.67 156.263 317.29C153.431 308.615 151.619 299.422 151.956 290.255C152.499 272.433 163.276 256.38 181.515 253.04C185.088 252.393 188.803 252.287 192.398 253.015C195.969 253.756 199.464 255.27 202.148 257.732C203.162 258.669 202.049 260.298 200.827 259.743H200.824Z" fill="#6B6B9A"/>
<path d="M188.106 333.653C188.272 335.048 189.274 341.791 184.75 345.686C176.842 352.493 155.63 348.893 145.753 329.394C138.77 315.608 139.042 299.216 152.039 294.004C160.898 290.451 172.138 300.763 176.935 313.252C176.935 313.252 179.125 317.118 182.893 322.573C187.34 329.012 188.107 333.653 188.107 333.653H188.106Z" fill="white"/>
<path d="M184.748 345.686C178.123 351.39 162.161 349.785 151.355 337.653C161.654 345.003 173.802 345.563 178.565 340.122C185.938 331.692 171.297 303.396 170.929 302.685C173.37 305.773 175.459 309.41 176.93 313.252C176.93 313.252 179.119 317.122 182.891 322.575C187.34 329.013 188.105 333.655 188.105 333.655C188.269 335.05 189.273 341.794 184.748 345.687V345.686Z" fill="#D3D4E2"/>
<path d="M189.299 333.509C193.411 350.231 176.707 354.245 163.959 349.379C152.397 345.252 144.019 334.994 140.404 323.492C137.041 313.425 137.506 299.898 147.345 293.531C150.157 291.696 153.596 290.399 156.967 290.821C164.774 291.741 171.189 298.111 174.939 304.532C176.386 307.132 177.51 309.91 178.055 312.821C178.179 313.485 177.741 314.124 177.078 314.248C176.564 314.345 176.066 314.105 175.808 313.683C171.509 306.753 162.079 292.554 152.608 296.574C145.629 299.524 143.275 307.011 144.001 314.165C145.283 327.073 153.336 339.908 165.736 344.621C173.068 347.606 185.341 347.698 186.59 337.754C186.807 336.484 186.894 335.197 186.908 333.795C186.916 333.125 187.464 332.587 188.134 332.594C188.697 332.601 189.165 332.988 189.297 333.508L189.299 333.509Z" fill="#6B6B9A"/>
<path d="M169.995 325.29C172.786 329.595 173.312 335.2 170.234 338.048C165.972 341.991 159.481 337.934 156.821 333.833C154.161 329.73 153.107 322.15 158.445 319.868C162.299 318.22 167.203 320.986 169.995 325.291V325.29Z" fill="#F27E80"/>
<path d="M168.133 311.151C169.526 313.297 169.791 315.993 168.252 317.512C166.714 319.032 163.436 318.296 161.565 315.409C159.693 312.523 160.359 309.229 162.374 308.446C164.388 307.662 166.741 309.003 168.133 311.149V311.151Z" fill="#F27E80"/>
<path d="M158.218 310.747C159.409 313.142 159.364 315.972 157.586 317.367C155.809 318.762 152.491 317.61 150.889 314.39C149.288 311.17 150.372 307.829 152.557 307.253C154.743 306.679 157.026 308.35 158.217 310.745L158.218 310.747Z" fill="#F27E80"/>
<path d="M153.591 319.62C154.395 321.237 154.366 323.15 153.164 324.092C151.964 325.034 149.722 324.256 148.641 322.081C147.559 319.907 148.291 317.65 149.767 317.261C151.244 316.873 152.786 318.002 153.59 319.62H153.591Z" fill="#F27E80"/>
<g opacity="0.5">
<path d="M167.868 278.154C167.387 274.512 171.501 266.704 177.793 263.439C187.519 258.39 195.821 260.709 196.783 262.463C197.881 264.469 191.649 265.19 180.743 271.449C173.771 275.451 168.453 282.579 167.87 278.152L167.868 278.154Z" fill="white"/>
</g>
<path d="M134.035 264.132C134.035 264.132 129.03 274.924 118.497 273.805C112.859 273.203 105.635 269.623 104.661 259.193C104.48 257.281 104.51 255.138 104.799 252.744C107.349 231.546 128.651 219.93 154.127 228.874C154.127 228.874 154.157 228.741 154.218 228.483C154.687 226.275 156.883 215.057 155.21 202.923L189.313 228.705C189.313 228.705 201.723 284.47 134.035 264.131V264.132Z" fill="#8E8FB3"/>
<path d="M134.034 264.132C134.034 264.132 129.03 274.923 118.496 273.804C112.859 273.203 105.635 269.623 104.66 259.193C107.283 261.004 112.613 263.447 120.192 260.913C131.338 257.202 132.933 250.086 132.933 250.086C132.933 250.086 158.073 265.985 166.211 253.593C174.555 240.894 160.671 231.841 154.216 228.484C154.686 226.276 156.881 215.058 155.208 202.924L189.311 228.706C189.311 228.706 201.721 284.471 134.033 264.132H134.034Z" fill="#6C709E"/>
<path d="M120.061 276.294C119.471 276.294 118.866 276.263 118.243 276.196C115.384 275.893 110.016 274.663 106.176 269.843C102.796 265.599 101.529 259.749 102.408 252.453C103.621 242.38 108.855 233.993 117.146 228.834C126.622 222.939 139.299 221.85 152.282 225.746C153.002 221.512 154.112 212.61 152.824 203.252C152.644 201.934 153.564 200.721 154.88 200.539C156.204 200.359 157.411 201.279 157.593 202.595C159.496 216.427 156.593 228.907 156.468 229.431C156.31 230.094 155.878 230.659 155.28 230.987C154.681 231.314 153.973 231.37 153.33 231.146C140.825 226.754 128.563 227.399 119.691 232.92C112.664 237.293 108.224 244.433 107.188 253.028C106.469 258.997 107.396 263.646 109.943 266.844C112.691 270.294 116.643 271.185 118.754 271.41C127.403 272.327 131.677 263.491 131.856 263.114C132.364 262.038 133.58 261.485 134.728 261.829C156.319 268.315 171.575 267.6 180.07 259.702C191.272 249.287 187.008 229.428 186.964 229.228C186.675 227.931 187.494 226.646 188.791 226.357C190.09 226.068 191.373 226.884 191.662 228.183C191.868 229.107 196.548 250.956 183.348 263.226C173.774 272.127 157.579 273.388 135.197 266.982C133.208 270.154 128.298 276.293 120.066 276.293L120.061 276.294Z" fill="#6B6B9A"/>
<path d="M388.079 206.743C388.033 207.096 387.981 207.456 387.928 207.804C387.766 208.813 387.575 209.787 387.331 210.72C381.862 231.773 355.973 229.22 355.48 205.93C355.132 189.355 347.471 184.083 340.28 185.093C339.166 185.249 338.064 185.556 337.004 185.992C334.626 186.972 332.445 188.62 330.792 190.708C329.401 192.471 328.385 194.559 327.939 196.838C327.104 201.164 327.446 205.496 328.618 209.828C331.083 218.957 337.247 228.091 343.917 237.156C345.826 239.754 347.773 242.335 349.687 244.921C351.862 247.849 353.59 250.837 354.906 253.864C357.15 259.02 358.211 264.257 358.223 269.355C358.229 273.827 357.434 278.182 355.926 282.264C348.711 301.878 325.189 315.258 296.202 305.05L299.276 279.63C304.999 283.475 310.776 284.872 315.892 284.676C316.489 284.659 317.08 284.613 317.661 284.548H317.667C317.87 284.525 318.074 284.502 318.265 284.467C325.902 283.435 331.674 278.893 332.955 274.172C337.02 259.291 316.288 233.82 309.688 219.506C297.399 192.84 307.565 167.908 329.413 159.308C332.387 158.136 335.583 157.266 338.964 156.738C340.785 156.448 342.67 156.268 344.601 156.187C346.01 156.129 347.385 156.129 348.719 156.199C377.821 157.631 390.4 187.644 388.081 206.742L388.079 206.743Z" fill="#8E8FB3"/>
<path d="M355.927 282.264C348.713 301.878 325.19 315.258 296.203 305.05L299.277 279.63C305.001 283.475 310.777 284.872 315.893 284.676C323.031 294.857 345.279 299.51 355.927 282.264Z" fill="#6C709E"/>
<path d="M318.932 203.733C323.419 220.328 337.649 232.472 343.914 237.156C337.245 228.092 331.086 218.957 328.616 209.831C327.445 205.497 327.104 201.164 327.944 196.842C328.387 194.56 329.4 192.475 330.795 190.71C333.18 187.68 336.673 185.595 340.284 185.095C347.473 184.086 355.132 189.355 355.48 205.932C355.972 229.223 381.864 231.776 387.332 210.723C387.574 209.79 387.77 208.813 387.929 207.805C384.012 212.053 373.73 219.999 366.148 214.156C355.48 205.932 364.526 187.272 350.663 177.297C340.102 169.696 313.11 182.217 318.931 203.736L318.932 203.733Z" fill="#6C709E"/>
<path d="M332.65 178.254C332.916 178.447 335.653 177.171 335.632 177.5C335.548 178.936 335.437 181.829 337.003 185.993C337.019 185.984 337.03 185.983 337.047 185.979C337.255 185.887 337.458 185.809 337.669 185.74C337.851 185.672 338.036 185.614 338.219 185.557C338.364 185.513 338.515 185.467 338.667 185.428C338.801 185.392 338.942 185.354 339.084 185.322C339.479 185.225 339.877 185.153 340.28 185.096C347.471 184.087 355.132 189.355 355.476 205.932C355.969 229.221 381.859 231.777 387.331 210.723C387.572 209.788 387.764 208.815 387.927 207.806C384.008 212.052 373.727 219.996 366.144 214.155C355.475 205.932 364.524 187.27 350.661 177.292C346.251 174.123 338.99 174.454 332.44 177.479C332.414 177.855 332.471 178.129 332.648 178.255L332.65 178.254Z" fill="#686868"/>
<path d="M337.004 185.993C338.067 185.556 339.166 185.249 340.283 185.097C347.474 184.087 355.134 189.355 355.479 205.932C355.972 229.222 381.862 231.777 387.334 210.723C387.575 209.789 387.767 208.815 387.93 207.806C387.977 207.455 388.029 207.098 388.076 206.742C390.399 187.647 377.82 157.632 348.718 156.204C347.383 156.13 346.009 156.129 344.6 156.188C342.669 156.272 340.786 156.453 338.964 156.741C337.337 158.229 333.556 163.557 333.145 168.49C333.094 169.1 335.824 167.428 335.708 168.088C335.314 170.308 331.51 177.427 332.651 178.258C332.914 178.449 335.652 177.175 335.633 177.502C335.55 178.939 335.434 181.829 337.004 185.995V185.993Z" fill="white"/>
<path d="M332.65 178.254C332.916 178.447 335.653 177.171 335.632 177.5C335.548 178.936 335.437 181.829 337.003 185.993C337.019 185.984 337.03 185.983 337.047 185.979C337.256 185.894 337.459 185.815 337.669 185.74C337.851 185.672 338.036 185.614 338.219 185.557C338.364 185.513 338.515 185.467 338.667 185.428C338.808 185.39 338.948 185.353 339.084 185.322C339.479 185.225 339.877 185.153 340.28 185.096C347.471 184.087 355.132 189.355 355.476 205.932C355.969 229.221 381.859 231.777 387.331 210.723C387.572 209.788 387.764 208.815 387.927 207.806C384.008 212.052 373.727 219.996 366.144 214.155C355.475 205.932 364.524 187.27 350.661 177.292C346.251 174.123 338.99 174.454 332.44 177.479C332.414 177.855 332.471 178.129 332.648 178.255L332.65 178.254Z" fill="#D3D4E2"/>
<path d="M315.663 310.909C309.11 310.909 302.264 309.737 295.407 307.322C294.153 306.88 293.495 305.506 293.937 304.253C294.378 302.999 295.751 302.344 297.005 302.783C317.582 310.034 337.943 305.138 348.874 290.315C358.562 277.178 358.135 260.337 347.76 246.36C347.039 245.39 346.313 244.418 345.587 243.445C334.22 228.215 322.465 212.465 325.577 196.384C327.153 188.244 335.188 181.936 343.14 182.619C346.489 182.904 357.452 185.426 357.884 205.885C358.123 217.195 364.536 221.949 369.956 222.583C375.655 223.255 382.522 219.655 385 210.116C387.528 200.382 385.052 184.29 375.425 172.369C370.058 165.722 360.387 157.936 344.696 158.594C330.7 159.181 318.898 165.697 312.317 176.469C305.137 188.22 304.973 203.541 311.87 218.505C313.7 222.476 316.743 227.482 319.966 232.781C328.63 247.031 338.451 263.185 335.279 274.806C334.061 279.27 329.754 283.366 324.042 285.495C315.727 288.593 306.212 287.186 297.935 281.633C296.831 280.892 296.537 279.398 297.277 278.295C298.017 277.191 299.512 276.897 300.615 277.636C307.591 282.315 315.516 283.534 322.362 280.984C326.583 279.411 329.832 276.488 330.637 273.538C333.265 263.913 323.611 248.036 315.854 235.279C312.558 229.859 309.445 224.738 307.499 220.517C299.92 204.07 300.179 187.101 308.21 173.958C315.644 161.793 328.868 154.44 344.495 153.784C362.151 153.034 373.106 161.836 379.171 169.344C388.7 181.145 393.013 198.407 389.659 211.324C386.454 223.666 377.16 228.27 369.397 227.362C361.477 226.435 353.357 219.465 353.073 205.984C352.838 194.887 348.973 187.944 342.731 187.412C337.22 186.943 331.411 191.561 330.302 197.297C327.593 211.289 338.7 226.172 349.444 240.564C350.172 241.54 350.9 242.516 351.624 243.49C363.132 258.991 363.572 278.491 352.747 293.169C344.234 304.712 330.724 310.908 315.662 310.908L315.663 310.909Z" fill="#6B6B9A"/>
<path d="M289.41 309.435C274.035 321.454 252.968 327.584 233.796 325.785C216.08 324.124 199.989 315.69 191.506 298.877C177.333 270.76 176.544 241.897 164.021 217.95C161.368 212.873 158.192 208.018 154.245 203.44L229.272 186.849L232.118 186.218C242.17 190.338 251.133 195.253 259.068 200.752C283.287 217.524 297.947 239.673 304.896 261.022C311.315 280.735 301.527 299.966 289.412 309.435H289.41Z" fill="#8E8FB3"/>
<path d="M206.657 261.737C206.657 261.737 255.13 227.201 256.546 229.143C255.334 261.737 275.229 270.526 273.378 271.305C271.528 272.083 217.867 297.383 219.281 294.1C220.697 290.817 206.656 261.738 206.656 261.738L206.657 261.737Z" fill="#6C709E"/>
<path d="M259.069 200.751C246.273 214.412 223.565 223.495 197.68 223.495C185.529 223.495 174.075 221.492 164.023 217.948C161.37 212.871 158.194 208.016 154.247 203.439L229.274 186.848L232.12 186.217C242.172 190.337 251.135 195.252 259.07 200.751H259.069Z" fill="#6C709E"/>
<path d="M220.321 221.084C213.199 222.649 205.583 223.496 197.678 223.496C185.527 223.496 174.073 221.494 164.021 217.95C163.888 217.703 163.763 217.45 163.624 217.204C163.473 216.915 163.316 216.627 163.154 216.338C162.907 215.886 162.661 215.441 162.401 214.997C162.239 214.714 162.076 214.432 161.908 214.154C161.752 213.883 161.59 213.619 161.427 213.354C161.187 212.951 160.934 212.548 160.681 212.145C160.446 211.772 160.206 211.405 159.965 211.038C159.689 210.61 159.406 210.19 159.11 209.768C158.767 209.262 158.419 208.764 158.052 208.264C157.853 207.988 157.65 207.711 157.444 207.434C156.723 206.466 155.977 205.509 155.195 204.565C154.883 204.186 154.564 203.813 154.245 203.44L229.272 186.849C223.87 196.18 218.836 208.632 220.321 221.083V221.084Z" fill="#E8E8E8"/>
<path d="M252.823 310.633C248.041 318.592 241.352 323.303 233.796 325.787C216.08 324.126 199.989 315.692 191.506 298.879C187.794 291.516 185.003 284.098 182.675 276.736C174.234 250.027 171.931 223.973 154.245 203.442L229.272 186.851C222.667 198.262 216.603 214.348 222.367 229.393C226.969 241.401 234.591 250.659 241.695 259.098C255.013 274.919 266.497 287.871 252.823 310.633Z" fill="white"/>
<path d="M252.824 310.633C248.041 318.592 241.353 323.302 233.796 325.787C216.081 324.126 199.989 315.692 191.507 298.879C187.795 291.516 185.003 284.098 182.675 276.736C199.128 281.055 226.337 283.461 241.695 259.098C255.013 274.918 266.496 287.87 252.823 310.633H252.824Z" fill="#E8E8E8"/>
<path d="M220.321 221.084C213.199 222.649 205.583 223.496 197.678 223.496C185.527 223.496 174.073 221.494 164.021 217.95C163.895 217.697 163.763 217.45 163.624 217.204C163.473 216.915 163.316 216.627 163.154 216.338C162.907 215.886 162.654 215.441 162.401 214.997C162.239 214.714 162.076 214.432 161.908 214.154C161.752 213.89 161.596 213.619 161.427 213.354C161.187 212.951 160.934 212.548 160.681 212.145C160.446 211.772 160.206 211.405 159.965 211.038C159.689 210.61 159.406 210.19 159.11 209.768C158.767 209.262 158.419 208.764 158.052 208.264C157.853 207.988 157.65 207.711 157.444 207.434C156.723 206.466 155.977 205.509 155.195 204.565C154.883 204.186 154.564 203.813 154.245 203.44L229.272 186.849C223.87 196.18 218.836 208.632 220.321 221.083V221.084Z" fill="#D3D4E2"/>
<path d="M240.467 328.498C235.222 328.498 230.054 327.961 225.101 326.851C208.743 323.19 196.385 313.892 189.361 299.96C182.003 285.363 178.232 270.716 174.586 256.551C169.712 237.618 165.108 219.735 152.425 205.011C151.557 204.004 151.671 202.484 152.678 201.618C153.684 200.751 155.205 200.864 156.071 201.871C169.488 217.447 174.229 235.858 179.246 255.351C182.829 269.268 186.534 283.661 193.659 297.793C201.685 313.714 215.76 319.829 226.152 322.155C246.498 326.709 270.747 320.972 287.932 307.538C299.288 298.663 308.724 280.556 302.612 261.77C296.435 242.79 278.947 208.027 231.207 188.443C229.977 187.938 229.39 186.533 229.894 185.303C230.398 184.073 231.804 183.485 233.033 183.991C252.472 191.965 268.982 203.283 282.101 217.632C293.486 230.084 302.162 244.832 307.188 260.28C314.018 281.268 303.531 301.455 290.896 311.33C276.793 322.352 258.194 328.498 240.467 328.498Z" fill="#6B6B9A"/>
<g opacity="0.3">
<path d="M110.78 159.643C110.833 159.728 110.878 159.82 110.931 159.906L110.754 159.617C110.76 159.624 110.773 159.63 110.78 159.643Z" fill="#6B184E"/>
<path d="M310.353 159.616L310.175 159.905C310.228 159.82 310.273 159.728 310.326 159.642C310.333 159.629 310.346 159.622 310.352 159.616H310.353Z" fill="#6B184E"/>
</g>
<path d="M96.613 134.302C88.1883 125.76 77.4871 119.431 66.0735 115.78C63.9416 115.004 61.7038 114.546 59.524 113.897C57.8037 113.545 55.9492 113.165 54.2354 112.781C52.7758 112.432 53.1242 110.268 54.6341 110.414C56.1247 110.579 57.8089 110.805 59.3098 111.003C62.8652 111.516 66.5923 112.497 70.0394 113.546C72.9225 114.557 76.1088 115.757 78.8267 117.121C86.419 120.91 93.455 125.898 98.5308 132.85C99.398 134.108 97.608 135.489 96.613 134.305V134.302Z" fill="#474867"/>
<path d="M94.4239 150.129C81.6953 144.638 66.8037 141.339 53.4982 146.738C52.0928 147.293 51.1416 145.296 52.4773 144.558C62.5668 139.176 74.8954 139.602 85.4959 143.221C89.0449 144.444 92.4223 145.97 95.6267 148.045C96.1842 148.406 96.3443 149.152 95.9829 149.71C95.6435 150.236 94.9647 150.401 94.4239 150.129Z" fill="#474867"/>
<path d="M119.806 94.961L151.657 70.0083L188.463 41.1814C168.856 20.0487 129.781 -3.41473 117.457 3.69102C115.124 5.04093 113.254 8.1976 111.888 12.7068C106.759 29.6168 108.706 65.4255 119.807 94.9622L119.806 94.961Z" fill="#8E8FB3"/>
<path d="M119.806 94.9609L151.657 70.0082C143.888 49.3879 124.353 2.20684 111.887 12.7054C106.758 29.6154 108.705 65.4242 119.806 94.9609Z" fill="#6C709E"/>
<g opacity="0.5">
<path d="M111.338 14.7058C112.494 12.1609 113.901 10.3425 115.523 9.40426C127.39 2.55534 164.018 24.0339 184.236 44.4968L188.466 41.1814C168.857 20.0487 129.782 -3.41473 117.459 3.69102C114.797 5.22676 112.734 9.13712 111.338 14.7058Z" fill="white"/>
</g>
<path d="M119.81 97.3679C118.836 97.3679 117.92 96.773 117.556 95.8077C110.958 78.2589 107.036 57.0887 106.794 37.728C106.681 28.5742 107.374 6.73168 116.253 1.60951C130.664 -6.70547 171.064 18.8912 190.226 39.5451C191.13 40.5194 191.072 42.0423 190.098 42.9457C189.123 43.849 187.601 43.7923 186.697 42.8179C165.585 20.0604 128.705 -0.0139987 118.658 5.77797C114.976 7.90091 111.369 18.5853 111.607 37.6686C111.842 56.4938 115.651 77.0677 122.062 94.1145C122.529 95.3586 121.9 96.7459 120.656 97.2144C120.377 97.3189 120.091 97.3692 119.81 97.3692V97.3679Z" fill="#6B6B9A"/>
<path d="M122.792 65.0485C129.481 56.3812 135.053 50.4924 139.904 46.1046C144.159 42.2678 147.854 39.5925 151.265 37.2372C150.498 33.1307 125.401 9.928 121.198 16.9757C119.941 19.0831 119.023 22.3108 118.45 26.1605C116.657 38.0877 118.117 55.9863 122.793 65.0485H122.792Z" fill="#F27E80"/>
<path d="M118.449 26.1608C120.176 24.0895 122.796 21.6477 125.117 22.2775C129.069 23.3513 137.141 36.7884 139.905 46.1036C144.159 42.2668 147.854 39.5915 151.265 37.2362C150.499 33.1297 125.401 9.92702 121.198 16.9747C119.941 19.0821 119.024 22.3098 118.451 26.1595L118.449 26.1608Z" fill="#FF5C64"/>
<path d="M122.388 69.5074L120.653 66.1507C114.214 53.6815 113.358 25.4146 119.128 15.742C119.825 14.5728 121.564 12.7157 125.334 13.3893C134.182 14.9741 152.726 31.9513 153.626 36.7985L153.911 38.3317L152.628 39.2183C145.198 44.3469 136.923 50.6809 124.697 66.5172L122.388 69.5074ZM123.26 18.2069C119.136 25.1217 118.849 47.4855 123.409 60.3716C133.798 47.43 141.378 41.2625 148.143 36.4798C144.561 31.6299 130.317 18.7077 124.13 18.0753C123.851 18.0469 123.369 18.0263 123.26 18.2069Z" fill="#6B6B9A"/>
<path d="M213.451 44.5627L256.69 90.5784L275.378 110.463C292.435 81.973 300.214 44.7653 296.453 28.125C295.679 24.7012 294.418 22.155 292.65 20.7225C281.118 11.4009 237.073 27.3223 213.452 44.5614L213.451 44.5627Z" fill="#8E8FB3"/>
<path d="M256.69 90.5782L275.377 110.463C292.434 81.9729 300.214 44.7652 296.453 28.1249C292.759 23.0247 286.565 19.1827 279.724 34.5776C272.629 50.521 262.472 75.928 256.691 90.577L256.69 90.5782Z" fill="#6C709E"/>
<g opacity="0.5">
<path d="M213.451 44.5626L216.177 47.4612C240.49 31.4326 283.475 18.6459 291.798 23.6971C298.564 27.8036 296.208 52.2298 291.939 71.6202C298.764 47.7438 299.357 26.1427 292.648 20.7237C281.116 11.4021 237.071 27.3235 213.45 44.5626H213.451Z" fill="white"/>
</g>
<path d="M275.371 112.869C274.951 112.869 274.525 112.759 274.138 112.527C272.998 111.844 272.626 110.366 273.309 109.227C282.675 93.5854 289.94 73.9782 293.243 55.4331C296.592 36.6298 294.598 25.3905 291.135 22.5926C286.59 18.9197 274.322 19.8101 258.319 24.9736C242.901 29.9487 226.251 38.1991 214.867 46.5051C213.794 47.2884 212.288 47.0536 211.505 45.9798C210.722 44.9061 210.958 43.4013 212.03 42.618C223.8 34.0307 240.971 25.5144 256.842 20.3935C267.311 17.0161 286.083 12.3224 294.159 18.8487C306.401 28.7394 297.494 78.2009 277.436 111.698C276.986 112.451 276.188 112.869 275.369 112.869H275.371Z" fill="#6B6B9A"/>
<g opacity="0.7">
<path d="M234.289 33.4821C235.264 33.9751 234.687 35.4644 233.639 35.1611C226.427 33.0743 219.425 31.7025 213.015 31.1488C205.643 30.5152 195.994 30.2132 184.947 31.0236C185.196 28.3032 185.615 25.6305 186.209 23.0145C195.692 22.9345 203.877 23.8766 209.911 24.9413C217.431 26.2641 225.94 29.2633 234.289 33.4834V33.4821Z" fill="white"/>
</g>
<path d="M187.632 213.962C193.861 214.135 200.101 213.956 206.306 213.38C258.299 208.551 281.423 188.492 289.127 173.141C289.351 172.683 289.571 172.226 289.787 171.763C289.91 171.497 290.022 171.224 290.138 170.962C290.442 170.277 290.739 169.591 290.997 168.889C291.141 168.495 291.286 168.101 291.43 167.708C291.444 167.677 291.451 167.648 291.459 167.619C291.478 167.553 291.504 167.484 291.531 167.423C291.637 167.102 291.743 166.789 291.842 166.47C291.975 166.088 292.092 165.704 292.203 165.319C292.314 164.963 292.412 164.61 292.51 164.257C292.63 163.823 292.752 163.388 292.858 162.951C293.046 162.184 293.224 161.4 293.388 160.617C293.44 160.365 293.493 160.112 293.534 159.847C293.596 159.579 293.644 159.305 293.689 159.026C293.752 158.702 293.805 158.365 293.86 158.036C295.803 145.979 294.382 132.712 291.585 120.112C288.807 107.592 284.678 95.7263 281.154 86.366C281.154 86.366 275.86 74.2865 262.579 58.3779C251.248 44.8091 240.446 37.1923 237.513 35.25C237.008 34.9119 236.736 34.7467 236.736 34.7467C227.617 29.862 218.167 26.3904 209.907 24.9373C196.578 22.5924 172.736 20.8205 147.656 29.3819C128.02 36.0773 115.333 49.024 106.946 63.06C94.7628 83.4377 91.6616 106.106 89.5568 115.247C88.9889 117.685 84.081 123.952 81.0301 133.138V133.144C80.794 133.846 80.5797 134.564 80.3707 135.301C80.2726 135.654 80.1745 136.007 80.0854 136.366C79.9861 136.74 79.8919 137.113 79.8067 137.49C79.8015 137.497 79.7964 137.505 79.8002 137.519C79.7293 137.838 79.6518 138.159 79.5834 138.492C79.5486 138.673 79.5099 138.86 79.4699 139.049C79.3485 139.69 79.2285 140.337 79.133 140.999C79.0672 141.4 79.0156 141.804 78.9653 142.214C78.924 142.541 78.8839 142.88 78.8517 143.218C78.8375 143.367 78.8181 143.522 78.8052 143.676C78.7743 144.021 78.7497 144.364 78.7252 144.708C78.6929 145.135 78.6749 145.566 78.6633 145.996C78.6258 146.851 78.622 147.734 78.6413 148.624C78.6542 149.07 78.6723 149.506 78.6942 149.961V149.968C78.7175 150.363 78.7394 150.756 78.7781 151.162C78.791 151.275 78.7962 151.391 78.8104 151.513C78.8452 151.904 78.8904 152.306 78.9343 152.71C79.0117 153.347 79.0982 153.988 79.2053 154.638C82.4652 174.411 106.553 195.289 147.217 207.548C160.33 211.501 173.938 213.583 187.629 213.963L187.632 213.962Z" fill="#8E8FB3"/>
<path d="M93.711 179.115C105.248 190.198 123.261 200.285 146.903 207.453C160.116 211.459 173.829 213.578 187.63 213.961C193.86 214.134 200.098 213.954 206.303 213.379C258.298 208.55 281.422 188.491 289.124 173.14C289.349 172.682 289.568 172.225 289.785 171.761C289.907 171.496 290.02 171.223 290.136 170.961C290.439 170.276 290.736 169.589 290.994 168.887C291.139 168.494 291.283 168.1 291.428 167.707C291.442 167.676 291.448 167.647 291.456 167.617C291.588 167.229 291.721 166.853 291.839 166.469C291.972 166.087 292.09 165.702 292.201 165.318C292.312 164.962 292.41 164.609 292.508 164.256C292.628 163.822 292.749 163.387 292.855 162.95C293.043 162.183 293.222 161.398 293.385 160.616C293.437 160.363 293.49 160.11 293.531 159.846C293.593 159.577 293.641 159.304 293.686 159.025C293.749 158.701 293.802 158.364 293.858 158.035C291.062 159.684 287.917 161.427 284.456 163.146C269.608 170.564 249.109 177.664 226.94 175.535C193.337 172.319 180.652 150.742 174.833 144.279C171.291 140.35 155.447 137.185 150.067 143.726C138.631 157.623 90.2111 166.625 81.0314 133.142C80.794 133.844 80.5797 134.561 80.3707 135.298C80.2726 135.652 80.1745 136.004 80.0854 136.363C79.9861 136.737 79.8919 137.11 79.8067 137.487C79.8015 137.495 79.7964 137.503 79.8002 137.517C79.7293 137.836 79.6518 138.157 79.5834 138.49C79.5486 138.671 79.5099 138.858 79.4699 139.046C79.3485 139.687 79.2363 140.333 79.133 140.996C79.0672 141.397 79.0156 141.801 78.9653 142.212C78.924 142.538 78.8839 142.878 78.8517 143.216C78.8375 143.364 78.8181 143.519 78.8052 143.674C78.7743 144.019 78.7497 144.362 78.7252 144.705C78.6929 145.132 78.6749 145.563 78.6633 145.993C78.6258 146.849 78.622 147.731 78.6413 148.622C78.6542 149.067 78.6723 149.503 78.6942 149.959V149.965C78.7175 150.36 78.7394 150.754 78.7781 151.159C78.791 151.273 78.7962 151.389 78.8104 151.51C78.8452 151.901 78.8904 152.304 78.9343 152.708C79.0117 153.344 79.0982 153.985 79.2053 154.636C80.5552 162.837 85.489 171.226 93.7084 179.112L93.711 179.115Z" fill="white"/>
<path d="M292.844 162.978C292.746 163.41 292.627 163.833 292.509 164.257C292.411 164.609 292.312 164.96 292.2 165.318C292.092 165.705 291.976 166.092 291.839 166.47C291.723 166.857 291.587 167.228 291.456 167.62C291.453 167.65 291.443 167.678 291.434 167.706C291.288 168.105 291.142 168.496 290.996 168.889C290.742 169.594 290.444 170.281 290.139 170.968C290.02 171.23 289.907 171.498 289.788 171.768C289.57 172.226 289.352 172.685 289.127 173.143C281.427 188.491 258.3 208.55 206.304 213.378C200.1 213.96 193.861 214.135 187.636 213.965C173.831 213.576 160.117 211.46 146.909 207.454C123.259 200.286 105.251 190.198 93.7092 179.117C85.4936 171.227 80.5612 162.844 79.21 154.637C79.099 153.987 79.0164 153.346 78.9415 152.714C78.8964 152.313 78.8525 151.904 78.8138 151.518C78.8034 151.391 78.7905 151.28 78.7802 151.162C78.7428 150.76 78.7196 150.361 78.7041 149.97L78.6976 149.963C78.6847 149.705 78.6783 149.446 78.6641 149.195C81.178 153.144 97.1034 184.641 146.012 193.402C246.076 211.328 281.015 177.638 292.848 162.98L292.844 162.978Z" fill="#D3D4E2"/>
<path d="M236.163 35.8102C226.874 31.4727 217.248 28.0321 207.134 26.7196C181.586 23.4003 151.585 26.0472 130.042 41.2279C111.844 54.2237 101.749 75.3486 96.4255 96.5755C95.0679 101.782 93.8896 107.716 92.7952 113.034C92.4352 114.879 92.0351 116.86 91.1111 118.455C89.1585 122.015 87.1646 125.281 85.5604 128.937C82.9703 134.66 81.4307 140.783 81.2952 147.044C80.9751 159.355 86.9542 169.069 95.6422 177.397C113.983 194.476 138.59 203.451 162.606 209.33C167.173 210.231 171.888 211.219 176.441 212.057C177.095 212.18 177.527 212.81 177.405 213.464C177.294 214.059 176.763 214.469 176.176 214.447C166.6 214.025 157.107 212.718 147.886 210.145C119.621 202.272 75.0773 181.398 75.9743 146.973C76.1266 135.655 80.397 126.07 86.0095 116.54L86.3283 115.954L86.5864 115.421C87.1362 114.226 87.2033 113.204 87.4976 111.939L88.6203 106.389C93.1179 83.9024 101.337 60.9384 118.1 44.6053C137.669 25.2187 166.856 19.7003 193.493 20.7895C201.157 21.2283 208.924 22.1459 216.308 24.2972C223.744 26.4925 230.748 29.7575 237.296 33.6873C238.548 34.539 237.584 36.4064 236.159 35.8076L236.163 35.8102Z" fill="#6B6B9A"/>
<path d="M282.284 85.9438C294.282 110.938 305.062 151.836 289.925 177.272C279.228 194.446 259.913 203.963 241.106 209.516C229.824 212.639 218.163 214.944 206.418 214.578C205.05 214.521 204.771 212.56 206.153 212.191C213.687 210.32 221.237 209.257 228.665 207.534C234.972 206.194 241.705 204.257 247.75 201.978C262.389 196.377 276.843 188.022 285.283 174.475C296.565 155.031 291.845 129.647 286.269 108.953C284.265 101.585 282.001 94.2704 280.03 86.7917C279.86 86.1464 280.245 85.4844 280.89 85.3127C281.455 85.163 282.032 85.4405 282.282 85.9438H282.284Z" fill="#6B6B9A"/>
<path d="M116.858 78.6782C115.889 76.8675 126.299 58.5147 139.918 63.7285C144.907 65.6385 143.702 70.0806 140.639 71.2743C137.724 72.4113 133.38 71.9751 129.659 73.1998C122.404 75.5873 117.828 80.4875 116.858 78.6782Z" fill="#474867"/>
<path d="M233.363 90.6684C234.742 88.8694 226.677 67.0231 210.913 70.2727C205.138 71.4638 205.658 76.5163 208.781 78.3631C211.753 80.1221 216.563 80.4202 220.397 82.418C227.875 86.3128 231.985 92.4662 233.363 90.6671V90.6684Z" fill="#474867"/>
<path d="M252.386 47.5786C259.079 53.9165 266.89 61.9462 277.172 80.3494C277.847 79.4847 278.504 78.5065 279.126 77.4405C283.518 70.0121 286.712 58.2166 287.669 48.2239C288.269 42.0047 288.013 36.4864 286.637 33.1451C283.457 25.3993 253.839 43.6618 252.386 47.5773V47.5786Z" fill="#F27E80"/>
<path d="M252.386 47.5786C259.079 53.9165 266.89 61.9462 277.172 80.3494C277.847 79.4847 278.504 78.5065 279.126 77.4405C278.739 70.1954 273.582 61.9966 271.797 55.7684C268.093 42.8475 278.274 35.7043 281.793 37.2633C283.879 38.1886 286.581 45.1691 287.669 48.2239C288.269 42.0047 288.013 36.4864 286.637 33.1451C283.457 25.3993 253.839 43.6618 252.386 47.5773V47.5786Z" fill="#FF5C64"/>
<path d="M277.17 82.7549C277.109 82.7549 277.049 82.7524 276.987 82.7485C276.182 82.6865 275.463 82.2271 275.069 81.5225C265.052 63.5878 257.555 55.7838 250.735 49.3272C250.035 48.6639 249.798 47.647 250.133 46.7436C251.412 43.2965 261.482 37.3419 263.488 36.183C268.153 33.4884 276.858 28.9508 282.736 28.8502C286.813 28.7831 288.333 30.9396 288.865 32.2327C293.236 42.8758 287.744 70.6858 279.071 81.827C278.613 82.4155 277.911 82.7549 277.173 82.7549H277.17ZM255.64 47.3592C261.851 53.3679 268.685 60.9099 277.333 75.7744C284.166 63.9453 287.541 41.6808 284.411 34.0614C284.295 33.7788 283.671 33.6962 283.309 33.6716C276.638 33.229 260.145 43.2243 255.64 47.3592Z" fill="#6B6B9A"/>
<path d="M223.936 140.127C224.881 129.685 218.288 120.554 209.21 119.732C200.133 118.911 192.008 126.71 191.063 137.153C190.118 147.596 196.711 156.727 205.789 157.548C214.866 158.37 222.991 150.57 223.936 140.127Z" fill="black"/>
<path d="M208.348 143.2C208.748 138.78 206.598 134.973 203.545 134.697C200.493 134.421 197.694 137.78 197.294 142.199C196.894 146.619 199.045 150.426 202.097 150.702C205.149 150.978 207.948 147.619 208.348 143.2Z" fill="white"/>
<g opacity="0.35">
<path d="M216.954 141.71C218.982 141.189 219.85 137.746 218.892 134.019C217.935 130.293 215.514 127.695 213.486 128.216C211.458 128.737 210.59 132.18 211.548 135.907C212.505 139.633 214.925 142.231 216.954 141.71Z" fill="white"/>
</g>
<path d="M141.832 129.966C142.21 119.492 135.783 110.758 127.475 110.458C119.168 110.158 112.126 118.405 111.748 128.878C111.369 139.352 117.797 148.085 126.104 148.386C134.412 148.686 141.453 140.439 141.832 129.966Z" fill="black"/>
<path d="M135.732 133.943C135.815 129.509 133.617 125.872 130.822 125.819C128.027 125.767 125.694 129.318 125.61 133.752C125.527 138.186 127.725 141.823 130.52 141.876C133.315 141.929 135.648 138.377 135.732 133.943Z" fill="white"/>
<g opacity="0.35">
<path d="M123.431 126.185C124.582 122.533 124.031 119.105 122.201 118.529C120.371 117.952 117.955 120.445 116.804 124.097C115.654 127.749 116.204 131.177 118.034 131.753C119.864 132.33 122.281 129.837 123.431 126.185Z" fill="white"/>
</g>
<path d="M262.053 156.358C275.265 147.984 293.872 146.771 308.789 150.493C309.824 150.741 310.853 151.009 311.881 151.275C312.523 151.44 312.909 152.096 312.744 152.74C312.588 153.342 312.002 153.719 311.401 153.628C309.636 153.36 307.738 153.034 305.975 152.733C302.753 152.368 299.266 152.043 296.008 151.945C293.048 151.931 289.752 152 286.823 152.288C278.748 153.111 270.706 155.039 263.314 158.41C261.973 159.145 260.77 157.24 262.054 156.36L262.053 156.358Z" fill="#474867"/>
<path d="M259.198 171.825C274.008 169.074 291.141 172.772 301.339 184.407C302.317 185.559 300.707 187.109 299.598 186.068C294.366 181.172 287.856 177.917 280.946 176.178C274 174.43 266.644 173.928 259.497 174.206C258.036 174.256 257.758 172.141 259.199 171.825H259.198Z" fill="#474867"/>
<path d="M173.796 158.403C173.796 158.403 173.63 165.023 172.026 171.445C170.386 177.99 167.245 184.322 161.246 183.222C156.843 182.421 154.284 177.938 152.804 172.859C150.59 165.293 150.762 156.409 150.762 156.409L173.796 158.403Z" fill="#131320"/>
<path d="M172.028 171.443C170.388 177.989 167.247 184.321 161.248 183.221C156.845 182.42 154.286 177.936 152.806 172.858C153.774 172.462 154.814 172.206 155.908 172.113C158.203 171.918 160.386 172.467 162.223 173.56C163.848 172.173 165.909 171.263 168.195 171.068C169.522 170.956 170.815 171.092 172.028 171.443Z" fill="#F27E80"/>
<path d="M162.556 185.45C162.001 185.45 161.436 185.398 160.864 185.294C148.497 183.03 148.604 159.088 148.656 156.366C148.679 155.217 149.617 154.302 150.761 154.302C150.774 154.302 150.788 154.302 150.802 154.302C151.963 154.324 152.889 155.285 152.867 156.447C152.747 162.851 154.086 179.773 161.623 181.152C163.062 181.416 164.253 181.114 165.375 180.201C170.204 176.278 171.573 163.095 171.693 158.347C171.722 157.204 172.659 156.295 173.797 156.295C173.815 156.295 173.833 156.295 173.851 156.295C175.014 156.323 175.933 157.289 175.903 158.452C175.855 160.396 175.228 177.619 168.032 183.468C166.419 184.779 164.551 185.451 162.556 185.451V185.45Z" fill="#131320"/>
<path d="M144.938 152.427C144.938 152.427 144.646 159.752 148.303 161.686C153.874 164.635 158.88 161.278 161.475 158.229C161.475 158.229 165.744 166.606 174 163.768C178.828 162.108 181.086 156.116 181.086 156.116L160.68 147.761L144.938 152.425V152.427Z" fill="white"/>
<path d="M148.305 161.683C153.366 165.216 158.879 161.281 161.476 158.232C161.476 158.232 166.534 167.55 174.418 164.495C177.192 163.417 178.043 160.886 178.226 158.723C167.309 162.846 161.724 146.562 161.724 146.562C158.841 149.952 151.966 157.516 146.295 156.575C146.13 158.369 146.459 160.401 148.305 161.685V161.683Z" fill="#D3D4E2"/>
<path d="M162.122 148.775C161.94 151.731 162.309 154.896 163.545 157.6C164.682 160.576 160.177 161.989 159.416 158.889C158.853 156.228 158.924 153.514 159.391 150.869C159.549 150.005 159.732 149.196 159.998 148.312C160.171 147.736 160.779 147.41 161.354 147.583C161.878 147.739 162.189 148.254 162.122 148.775Z" fill="#131320"/>
<path d="M174.155 148.339C173.544 150.572 164.966 153.986 160.412 153.431C155.523 152.834 150.716 148.283 150.343 146.025C149.907 143.382 154.34 140.768 163.927 142.194C171.77 143.36 174.823 145.894 174.155 148.341V148.339Z" fill="#131320"/>
<g opacity="0.7">
<path d="M163.492 144.244C163.604 144.928 161.789 145.636 160.384 145.548C159.587 145.497 156.725 145.284 156.601 144.536C156.478 143.786 157.324 143.155 159.989 143.088C162.413 143.027 163.378 143.56 163.49 144.244H163.492Z" fill="white"/>
</g>
<path d="M146.235 152.478C146.692 154.974 147.111 157.983 148.945 159.576C153.888 162.375 158.767 158.691 161.592 154.576L163.402 157.249C168.345 164.978 176.012 163.393 179.873 155.66C180.174 154.976 180.994 154.673 181.662 155.02C182.236 155.316 182.495 155.98 182.301 156.574C181.516 158.879 180.415 160.86 178.776 162.663C172.803 169.074 163.269 166.793 159.55 159.211C159.55 159.211 163.123 159.63 163.12 159.63C161.641 161.505 159.759 163.086 157.443 164.112C152.81 166.346 145.477 164.73 144.053 159.292C143.347 156.954 143.289 154.743 143.644 152.373C143.761 151.662 144.432 151.181 145.143 151.297C145.751 151.396 146.178 151.896 146.236 152.477L146.235 152.478Z" fill="#131320"/>
<path d="M171.777 287.558H53.2263C49.1456 287.558 45.8379 284.25 45.8379 280.17V274.739H157.324L171.777 287.558Z" fill="#BBBCE1"/>
<path d="M171.775 287.557H53.2259C49.1478 287.557 45.8389 284.248 45.8389 280.17V274.738H45.9047C46.3796 278.353 49.4782 281.151 53.2259 281.151H164.556L171.775 287.557Z" fill="#D2D2EB"/>
<path d="M171.777 289.965H53.2259C47.825 289.965 43.4307 285.571 43.4307 280.171V274.74C43.4307 273.411 44.5083 272.333 45.8375 272.333H157.324C157.912 272.333 158.48 272.549 158.92 272.94L173.373 285.759C174.12 286.422 174.381 287.479 174.026 288.414C173.671 289.348 172.776 289.966 171.777 289.966V289.965ZM48.2444 277.146V280.17C48.2444 282.916 50.4783 285.151 53.2259 285.151H165.438L156.411 277.146H48.2444Z" fill="#262640"/>
<path d="M157.325 274.738L137.004 273.931L51.0774 270.514H51.0296C45.9049 270.514 41.206 267.656 38.8546 263.097L2.45996 192.402C2.68193 188.876 4.25253 185.731 6.65294 183.469C9.0469 181.207 12.2771 179.818 15.8145 179.805L109.315 179.39C117.688 179.353 125.28 184.304 128.619 191.987L149.247 239.401L159.75 263.547C161.428 267.415 160.454 271.915 157.325 274.736V274.738Z" fill="#BBBCE1"/>
<path d="M157.326 274.738L137.005 273.931C139.339 262.844 143.736 242.968 143.736 242.968C143.736 242.968 148.56 246.529 149.247 239.401L159.751 263.547C161.428 267.415 160.454 271.915 157.326 274.736V274.738Z" fill="#BBBCE1"/>
<path d="M157.325 277.146C157.294 277.146 157.262 277.146 157.229 277.145L51.033 272.918H51.0163C44.9662 272.918 39.4904 269.585 36.7144 264.203L0.322349 193.506C0.123605 193.12 0.0332672 192.688 0.0603687 192.254C0.579168 183.96 7.4952 177.433 15.8063 177.397L109.302 176.983C109.336 176.983 109.372 176.983 109.407 176.983C118.713 176.983 127.113 182.486 130.829 191.025L161.958 262.593C164.054 267.41 162.839 273.011 158.937 276.529C158.494 276.929 157.92 277.149 157.325 277.149V277.146ZM51.0782 268.104C51.1092 268.104 51.1414 268.104 51.1737 268.107L156.361 272.294C158.204 270.163 158.69 267.143 157.544 264.51L126.415 192.943C123.466 186.163 116.795 181.794 109.407 181.794C109.38 181.794 109.353 181.794 109.324 181.794L15.8282 182.208C10.2544 182.233 5.58003 186.45 4.92185 191.924L40.9926 261.998C42.9374 265.767 46.7755 268.104 51.0163 268.104C51.0382 268.104 51.0588 268.104 51.0782 268.104Z" fill="#262640"/>
<path d="M157.325 274.207L45.8375 274.7H45.7717C40.6521 274.7 35.9596 271.843 33.6147 267.289L28.561 255.474L3.16947 196.125C0.72131 190.393 4.90784 184.016 11.1399 183.992L103.611 183.583C112.268 183.54 120.112 188.66 123.564 196.594L143.734 242.968L157.324 274.207H157.325Z" fill="#D2D2EB"/>
<path d="M157.327 274.207L45.839 274.7H45.7732C40.6536 274.7 35.9612 271.843 33.6163 267.289L28.5625 255.474C36.3471 260.334 52.2943 266.218 83.2507 265.087C122.568 263.649 139.4 247.912 143.737 242.967L157.327 274.206V274.207Z" fill="#BBBCE1"/>
<path d="M103.611 182.679C112.38 181.396 122.422 187.304 124.392 196.236C124.6 197.195 123.286 197.758 122.737 196.956C119.287 192.141 115.045 187.95 109.4 185.94C107.561 185.246 105.621 184.792 103.602 184.482C102.581 184.327 102.589 182.824 103.609 182.68L103.611 182.679Z" fill="#262640"/>
<path d="M137.921 226.584C145.392 242.038 153.022 257.443 159.56 273.321C160.199 274.85 158.993 276.641 157.335 276.615L45.8485 277.11C42.9022 277.156 39.9314 276.377 37.3851 274.856C34.7924 273.307 32.6217 271.009 31.2654 268.295C25.5715 255.38 19.4814 240.928 13.8598 227.891C11.0425 221.158 5.29958 207.592 2.47974 200.859C2.02031 199.646 0.598125 196.683 0.330982 195.378C-1.08991 189.982 2.19066 183.94 7.49609 182.247C8.89891 181.759 10.4127 181.622 11.8801 181.675C19.2246 181.824 26.5497 182.043 33.8813 182.687C35.3461 182.843 35.319 184.942 33.8916 185.094C26.5652 185.802 19.2426 186.086 11.8994 186.301C7.61353 185.986 3.99742 189.955 5.11503 194.182C5.29313 195.012 6.73338 198.026 7.07279 198.894C10.0049 205.603 15.8369 219.087 18.7613 225.794C24.3532 238.868 30.5052 253.242 35.9591 266.287C37.4148 269.339 41.5962 272.394 45.8266 272.297L157.313 271.803L155.118 275.169C154.2 273.232 153.316 271.28 152.466 269.315C148.189 259.491 144.307 249.501 140.351 239.543C138.773 235.558 137.235 231.555 135.714 227.544C135.188 226.114 137.241 225.247 137.921 226.584Z" fill="#262640"/>
<path d="M157.325 274.74H231.427C232.298 274.74 233.005 275.448 233.005 276.319C233.005 282.522 227.969 287.558 221.765 287.558H164.713C160.635 287.558 157.325 284.248 157.325 280.17V274.739V274.74Z" fill="#BBBCE1"/>
<path d="M233.002 276.32C233.002 279.424 231.745 282.233 229.711 284.267C227.677 286.301 224.869 287.558 221.764 287.558H164.712C160.634 287.558 157.325 284.249 157.325 280.171V274.739H157.391C157.865 278.354 160.964 281.152 164.712 281.152H221.764C224.868 281.152 227.677 279.895 229.711 277.861C230.595 276.977 231.33 275.942 231.883 274.805C232.533 275.004 233.002 275.605 233.002 276.321V276.32Z" fill="#D2D2EB"/>
<path d="M221.766 289.965H164.713C159.312 289.965 154.918 285.571 154.918 280.171V274.74C154.918 273.411 155.996 272.333 157.325 272.333H231.425C233.623 272.333 235.411 274.122 235.411 276.319C235.411 283.843 229.288 289.965 221.764 289.965H221.766ZM159.732 277.146V280.17C159.732 282.916 161.966 285.151 164.713 285.151H221.766C226.357 285.151 230.143 281.629 230.561 277.146H159.732Z" fill="#262640"/>
<path d="M214.132 268.812C211.214 267.722 208.086 266.303 204.747 264.522C203.526 266.398 198.54 275.175 185.726 273.803C180.12 273.202 172.948 269.665 171.902 259.373C171.709 257.417 171.727 255.216 172.028 252.743C172.713 247.04 174.759 242.035 177.875 237.933C186.339 226.786 202.731 222.334 221.356 228.873C221.356 228.873 223.619 224.445 224.232 219.555L256.422 228.669L256.542 228.705C256.542 228.705 257.871 285.143 214.132 268.812Z" fill="#8E8FB3"/>
<path d="M214.132 268.812C211.214 267.722 208.086 266.303 204.747 264.522C203.526 266.398 198.54 275.175 185.726 273.803C180.12 273.202 172.948 269.665 171.901 259.373C173.988 262.176 178.007 265.761 184.811 265.55C199.578 265.094 201.721 252.293 208.308 252.822C214.888 253.351 224.248 265.491 240.503 257.412C250.507 252.444 254.748 240.256 256.42 228.669L256.54 228.705C256.54 228.705 257.87 285.143 214.131 268.812H214.132Z" fill="#6C709E"/>
<path d="M214.131 268.812C211.213 267.723 208.085 266.303 204.746 264.522C203.526 266.398 198.539 275.175 185.725 273.804C185.551 273.786 185.37 273.761 185.196 273.738C185.178 273.738 185.166 273.738 185.153 273.731C184.991 273.707 184.823 273.684 184.66 273.653C184.48 273.623 184.294 273.592 184.113 273.551C183.969 273.526 183.831 273.496 183.686 273.46C183.439 273.406 183.193 273.34 182.947 273.274C182.796 273.232 182.639 273.184 182.49 273.142C181.99 272.985 181.486 272.805 180.991 272.594C180.889 272.558 180.793 272.51 180.691 272.468C180.071 272.192 179.457 271.873 178.855 271.5C178.693 271.398 178.53 271.296 178.368 271.181C178.175 271.055 177.995 270.923 177.809 270.784C177.623 270.651 177.442 270.508 177.268 270.357C177.087 270.206 176.913 270.056 176.739 269.893C176.649 269.815 176.565 269.731 176.481 269.653C176.223 269.407 175.975 269.142 175.735 268.871C175.651 268.774 175.572 268.684 175.495 268.589C175.097 268.119 174.731 267.608 174.382 267.061C174.286 266.904 174.19 266.742 174.093 266.579C173.84 266.146 173.606 265.682 173.39 265.196C173.293 264.985 173.204 264.768 173.119 264.547C173.101 264.499 173.083 264.45 173.058 264.402C172.974 264.185 172.896 263.963 172.818 263.735C172.771 263.579 172.722 263.428 172.674 263.265C172.626 263.127 172.583 262.982 172.547 262.838C172.529 262.772 172.511 262.705 172.493 262.639C172.445 262.476 172.403 262.314 172.367 262.146C172.349 262.074 172.337 262.002 172.319 261.936C172.271 261.737 172.229 261.538 172.192 261.334C172.138 261.063 172.09 260.781 172.048 260.492C172.03 260.372 172.012 260.245 171.994 260.112C171.964 259.872 171.933 259.624 171.903 259.378C173.997 262.181 178.015 265.761 184.813 265.549C199.58 265.092 201.723 252.292 208.31 252.821C209.35 252.905 210.457 253.277 211.648 253.813C211.949 258.698 212.118 263.829 214.133 268.81L214.131 268.812Z" fill="#E8E8E8"/>
<path d="M214.132 268.812C211.214 267.722 208.085 266.303 204.747 264.522C203.526 266.398 198.539 275.175 185.725 273.803C179.055 273.087 170.163 268.209 172.028 252.743C172.713 247.04 174.758 242.035 177.875 237.933C184.089 232.718 193.173 228.356 203.352 235.256C215.389 243.425 209.168 256.57 214.132 268.812Z" fill="white"/>
<path d="M214.131 268.812C211.213 267.723 208.085 266.303 204.746 264.522C203.526 266.398 198.539 275.175 185.725 273.804C185.551 273.786 185.37 273.761 185.196 273.738C185.178 273.738 185.166 273.738 185.153 273.731C184.991 273.707 184.823 273.684 184.66 273.653C184.48 273.623 184.294 273.592 184.113 273.551C183.969 273.526 183.831 273.496 183.686 273.46C183.439 273.406 183.193 273.34 182.947 273.274C182.796 273.232 182.639 273.184 182.49 273.142C181.99 272.985 181.486 272.805 180.991 272.594C180.889 272.558 180.793 272.51 180.691 272.468C180.071 272.192 179.457 271.873 178.855 271.5C178.693 271.398 178.53 271.296 178.368 271.181C178.175 271.055 177.995 270.923 177.809 270.784C177.628 270.646 177.442 270.508 177.268 270.357C177.087 270.206 176.913 270.056 176.739 269.893C176.649 269.815 176.565 269.731 176.481 269.653C176.223 269.407 175.975 269.142 175.735 268.871C175.651 268.774 175.572 268.684 175.495 268.589C175.097 268.119 174.731 267.608 174.382 267.061C174.286 266.904 174.19 266.742 174.093 266.579C173.84 266.146 173.606 265.682 173.39 265.196C173.293 264.985 173.204 264.768 173.119 264.547C173.101 264.499 173.083 264.45 173.058 264.402C172.974 264.185 172.896 263.963 172.818 263.735C172.771 263.579 172.722 263.428 172.674 263.265C172.626 263.127 172.583 262.982 172.547 262.838C172.529 262.772 172.511 262.705 172.493 262.639C172.445 262.476 172.403 262.314 172.367 262.146C172.349 262.074 172.337 262.002 172.319 261.936C172.271 261.737 172.229 261.538 172.192 261.334C172.138 261.063 172.09 260.781 172.048 260.492C172.03 260.372 172.012 260.245 171.994 260.112C171.964 259.872 171.933 259.624 171.903 259.378C173.997 262.181 178.015 265.761 184.813 265.549C199.58 265.092 201.723 252.292 208.31 252.821C209.35 252.905 210.457 253.277 211.648 253.813C211.949 258.698 212.118 263.829 214.133 268.81L214.131 268.812Z" fill="#D3D4E2"/>
<path d="M257.741 228.678C258.878 239.342 257.123 250.284 252.125 259.855C241.355 279.833 220.505 276.29 203.617 266.647L206.766 265.837C201.743 274.455 192.144 278.028 182.583 275.667C168.969 272.085 167.371 257.364 171.107 245.806C177.128 227.164 197.106 220.475 214.973 224.578C217.413 225.106 219.803 225.806 222.153 226.607L219.214 227.782C220.459 225.932 221.542 223.748 222.331 221.632C222.924 220.524 222.755 218.147 224.538 218.514C225.083 218.665 225.437 219.165 225.425 219.706C225.35 223.237 224.68 226.625 223.501 229.972C222.951 231.063 221.678 231.548 220.561 231.148C218.391 230.411 216.195 229.766 213.966 229.283C207.383 227.875 200.347 227.798 193.928 229.762C185.415 232.263 178.339 238.793 175.683 247.299C172.88 255.982 173.172 268.357 183.801 271.01C191.429 272.84 198.785 270.103 202.735 263.21C203.413 262.147 204.798 261.808 205.883 262.4C208.883 263.898 211.922 265.284 215.024 266.407C218.129 267.512 221.293 268.354 224.453 268.819C248.186 272.251 253.092 246.938 255.337 228.733C255.447 227.313 257.558 227.24 257.743 228.677L257.741 228.678Z" fill="#6B6B9A"/>
<path d="M209.176 253.776C208.851 257.886 208.411 261.68 206.88 265.643C206.394 266.902 204.969 267.522 203.717 267.017C202.292 266.464 201.749 264.654 202.62 263.403C203.539 262.057 204.326 260.39 205.012 258.687C205.696 256.968 206.307 255.15 206.808 253.372C207.203 251.991 209.264 252.352 209.176 253.774V253.776Z" fill="#474867"/>
<path d="M232.298 236.233C228.471 233.848 224.455 232.716 220.254 231.017C217.06 229.565 219.417 224.978 222.459 226.739C226.156 229.06 230.437 231.272 233.713 234.287C234.215 234.726 234.267 235.488 233.828 235.992C233.438 236.438 232.791 236.526 232.299 236.233H232.298Z" fill="#6B6B9A"/>
<path d="M267.695 339.158C264.723 350.304 259.808 363.256 250.4 361.957C246.736 361.457 232.01 339.771 229.015 330.526C225.448 319.499 224.353 309.994 225.032 301.945C227.697 270.213 257.98 261.183 273.38 271.301L297.419 243.437C302.292 251.823 306.574 264.004 308.379 276.902C312.247 304.429 304.817 335.193 267.696 339.158H267.695Z" fill="#8E8FB3"/>
<path d="M267.695 339.158C264.723 350.304 259.808 363.256 250.4 361.957C246.736 361.457 232.01 339.771 229.015 330.526C225.448 319.499 224.353 309.994 225.032 301.945C230.548 300.946 237.695 302.144 246.418 308.562C272.105 327.475 285.837 320.377 293.868 315.053C303.277 308.815 306.947 290.359 308.378 276.902C312.246 304.429 304.816 335.193 267.695 339.158Z" fill="#6C709E"/>
<path d="M272.718 272.309C250.666 263.475 229.527 278.43 227.61 301.545C226.599 311.517 228.604 321.775 231.818 331.178C235.124 338.924 239.891 346.159 244.875 352.968C246.667 355.266 248.728 358.047 250.885 359.599C250.856 359.587 250.825 359.579 250.793 359.577C250.771 359.574 250.693 359.577 250.767 359.581L251.011 359.601C256.965 360.119 260.273 352.889 262.253 348.194C263.498 345.099 264.484 341.841 265.371 338.538C265.639 337.551 266.48 336.87 267.441 336.765C272.24 336.187 276.969 335.178 281.406 333.459C311.287 322.115 310.358 283.401 301.308 257.93C299.685 253.309 297.722 248.807 295.324 244.619C293.826 241.871 297.808 239.482 299.502 242.23C309.223 259.851 313.807 281.979 310.701 301.941C306.886 325.362 291.321 339.105 267.95 341.55C267.95 341.552 270.026 339.771 270.019 339.78C267.482 348.676 263.319 363.656 252.186 364.443C251.395 364.45 250.576 364.45 249.794 364.283C248.658 364.038 247.78 363.327 246.931 362.621C242.16 358.093 238.575 352.552 234.995 347.115C231.921 342.171 228.861 337.154 226.846 331.616C223.932 322.685 222.066 313.222 222.415 303.786C222.976 285.456 234.055 268.948 252.811 265.508C256.486 264.842 260.304 264.733 264.001 265.477C267.674 266.233 271.268 267.783 274.038 270.299C275.06 271.235 273.941 272.873 272.716 272.31L272.718 272.309Z" fill="#6B6B9A"/>
<path d="M259.592 348.499C259.763 349.936 260.796 356.885 256.133 360.898C247.983 367.913 226.126 364.203 215.948 344.111C208.752 329.905 209.032 313.014 222.425 307.644C231.554 303.984 243.136 314.608 248.079 327.478C248.079 327.478 250.336 331.462 254.218 337.084C258.8 343.719 259.59 348.5 259.59 348.5L259.592 348.499Z" fill="white"/>
<path d="M256.132 360.898C249.304 366.775 232.857 365.121 221.722 352.621C232.334 360.195 244.853 360.772 249.761 355.166C257.358 346.479 242.272 317.322 241.892 316.587C244.406 319.77 246.56 323.518 248.076 327.476C248.076 327.476 250.332 331.464 254.218 337.083C258.802 343.717 259.591 348.5 259.591 348.5C259.76 349.938 260.793 356.886 256.132 360.898Z" fill="#D3D4E2"/>
<path d="M260.787 348.357C264.964 365.542 247.835 369.628 234.738 364.633C222.85 360.386 214.234 349.835 210.519 338.004C207.065 327.662 207.53 313.765 217.636 307.222C220.52 305.341 224.042 304.007 227.501 304.44C235.522 305.384 242.107 311.934 245.97 318.527C247.463 321.2 248.626 324.056 249.203 327.045C249.33 327.707 248.897 328.348 248.235 328.476C247.718 328.575 247.214 328.334 246.957 327.908C242.653 321.173 237.974 313.68 230.508 310.358C227.884 309.288 225.293 309.104 222.985 310.22C215.759 313.272 213.315 321.021 214.066 328.426C215.388 341.757 223.709 355.011 236.518 359.875C244.141 362.952 256.792 363.067 258.085 352.729C258.305 351.417 258.389 350.088 258.399 348.641C258.403 347.971 258.95 347.432 259.62 347.437C260.185 347.441 260.659 347.832 260.789 348.356L260.787 348.357Z" fill="#6B6B9A"/>
<path d="M269.536 329.072C269.906 332.548 270.111 335.96 270.084 339.468C269.957 342.668 265.307 342.631 265.236 339.425C265.522 337.62 266.07 335.857 266.353 334.014C266.655 332.372 266.92 330.696 267.133 329.049C267.322 327.641 269.384 327.675 269.536 329.074V329.072Z" fill="#6B6B9A"/>
<path d="M165.525 236.82C161.602 234.629 157.389 232.515 153.169 231.084C149.93 229.835 151.951 225.156 155.084 226.669C159.378 229.018 163.141 231.805 166.905 234.848C168.035 235.792 166.791 237.559 165.525 236.82Z" fill="#6B6B9A"/>
<path d="M240.93 339.882C243.807 344.318 244.348 350.094 241.177 353.029C236.785 357.091 230.096 352.913 227.355 348.685C224.614 344.458 223.527 336.645 229.029 334.294C233.001 332.596 238.054 335.446 240.93 339.882Z" fill="#F27E80"/>
<path d="M239.011 325.312C240.445 327.524 240.719 330.301 239.134 331.866C237.549 333.432 234.17 332.674 232.242 329.701C230.314 326.726 231.001 323.333 233.077 322.525C235.154 321.717 237.578 323.1 239.013 325.312H239.011Z" fill="#F27E80"/>
<path d="M228.795 324.896C230.022 327.364 229.976 330.28 228.144 331.719C226.313 333.157 222.895 331.97 221.244 328.652C219.595 325.334 220.711 321.89 222.963 321.298C225.215 320.706 227.569 322.429 228.795 324.896Z" fill="#F27E80"/>
<path d="M224.026 334.041C224.854 335.708 224.823 337.678 223.586 338.649C222.348 339.621 220.039 338.818 218.926 336.577C217.812 334.335 218.566 332.009 220.087 331.609C221.609 331.209 223.197 332.373 224.027 334.04L224.026 334.041Z" fill="#F27E80"/>
<path d="M168.888 283.208C170.024 283.208 170.946 282.286 170.946 281.149C170.946 280.013 170.024 279.091 168.888 279.091C167.751 279.091 166.829 280.013 166.829 281.149C166.829 282.286 167.751 283.208 168.888 283.208Z" fill="#262640"/>
<path d="M188.773 279.091H177.909V283.208H188.773V279.091Z" fill="#262640"/>
<path d="M218.313 280.296H215.133C214.597 280.296 214.162 280.731 214.162 281.267C214.162 281.803 214.597 282.237 215.133 282.237H218.313C218.848 282.237 219.283 281.803 219.283 281.267C219.283 280.731 218.848 280.296 218.313 280.296Z" fill="#262640"/>
<path d="M193.57 265.045C194.013 266.322 195.58 270.018 197.21 269.513C200.353 268.202 202.398 272.707 199.338 274.208C198.649 274.567 197.793 274.402 197.073 274.323C195.755 274.181 194.554 273.511 193.79 272.722C192.386 271.275 191.878 269.618 191.491 267.833C191.375 266.657 190.522 264.358 192.333 264.143C192.921 264.11 193.421 264.503 193.57 265.044V265.045Z" fill="#474867"/>
<path d="M181.501 265.087C181.953 267.342 182.804 270.906 185.39 271.362C189.172 272.078 187.465 277.52 183.933 275.949C179.662 274.142 178.785 269.18 179.095 265.094C179.229 263.632 181.359 263.641 181.5 265.087H181.501Z" fill="#474867"/>
<g opacity="0.5">
<path d="M238.737 291.311C238.241 287.558 242.48 279.513 248.963 276.149C258.986 270.946 267.541 273.335 268.532 275.143C269.664 277.209 263.242 277.953 252.003 284.403C244.818 288.526 239.338 295.871 238.737 291.31V291.311Z" fill="white"/>
</g>
<path d="M80.5465 226.653C82.3507 228.292 83.8348 230.24 84.7524 232.326C87.3283 238.183 83.4038 240.48 77.3266 240.49C71.2469 240.501 65.3103 238.222 62.7344 232.365C61.8168 230.278 61.5871 228.328 61.9485 226.685C61.4361 226.276 60.9264 225.819 60.4295 225.316C57.6832 222.534 56.4353 219.462 57.6393 218.453C58.846 217.445 62.0466 218.883 64.7928 221.665C65.0419 221.917 65.2794 222.174 65.5026 222.428C66.517 221.987 67.7185 221.744 69.0826 221.741C70.4467 221.739 71.8599 221.978 73.2601 222.414C73.2601 222.16 73.2717 221.903 73.2988 221.65C73.5931 218.862 75.5263 217.415 77.617 218.418C79.7051 219.421 81.1595 222.492 80.8614 225.28C80.8072 225.785 80.7001 226.243 80.5478 226.652L80.5465 226.653Z" fill="white"/>
<g opacity="0.5">
<path d="M15.845 189.393C28.8305 186.794 84.0284 185.632 96.526 188.619C109.024 191.604 4.97086 191.57 15.845 189.393Z" fill="white"/>
</g>
<path d="M54.862 74.8116C57.9722 69.723 59.5054 63.6136 58.8498 57.2228C57.2572 41.7104 43.3903 30.4272 27.8793 32.0197C12.3669 33.6122 1.08367 47.4792 2.67621 62.9902C4.26874 78.5026 18.1356 89.7858 33.6467 88.1933C37.961 87.7506 41.9475 86.3555 45.4216 84.2416L58.4884 87.1725L54.8633 74.8116H54.862Z" fill="white"/>
<g opacity="0.5">
<path d="M28.4342 37.4211C42.9244 35.9331 55.9757 45.6831 58.931 59.6184C58.9349 58.6234 58.891 57.6194 58.7878 56.6063C57.1953 41.094 43.3284 29.8107 27.8173 31.4033C12.3036 32.9958 1.01912 46.8614 2.61295 62.3738C2.71748 63.3907 2.87751 64.3883 3.08399 65.3665C3.1382 51.115 13.9388 38.9091 28.4342 37.4211Z" fill="white"/>
</g>
<path d="M30.7057 90.8287C23.671 90.8287 16.9046 88.4335 11.3747 83.9334C5.0097 78.7531 1.04385 71.406 0.204995 63.2433C-0.632568 55.0806 1.75752 47.0806 6.93648 40.7169C12.1154 34.3532 19.4625 30.3861 27.6252 29.5485C35.7892 28.7109 43.788 31.101 50.1517 36.28C56.5154 41.4589 60.4825 48.806 61.3201 56.9687C61.9744 63.3388 60.6722 69.598 57.5478 75.1422L60.8709 86.4731C61.1187 87.3172 60.9006 88.2283 60.2992 88.871C59.6978 89.5137 58.8035 89.7898 57.944 89.5963L45.8322 86.8797C42.1529 88.9562 38.1444 90.2286 33.8998 90.6648C32.8313 90.7745 31.7653 90.8287 30.7057 90.8287ZM30.8116 34.3519C29.9224 34.3519 29.0293 34.3971 28.1337 34.49C21.2912 35.1921 15.1314 38.5178 10.79 43.8529C6.44865 49.188 4.44444 55.895 5.14649 62.7374C5.84855 69.5799 9.17428 75.7397 14.5094 80.0811C19.8445 84.4225 26.5553 86.4267 33.3927 85.7246C37.2372 85.3297 40.8494 84.1179 44.1313 82.1214C44.6811 81.7872 45.3392 81.6788 45.9651 81.8194L54.9189 83.8275L52.4798 75.5113C52.2824 74.8389 52.3792 74.1149 52.7444 73.5174C55.7036 68.6752 56.9619 63.1285 56.3811 57.4772C55.6791 50.6347 52.3533 44.4749 47.0182 40.1336C42.3813 36.36 36.7094 34.3532 30.8129 34.3532L30.8116 34.3519Z" fill="#6B6B9A"/>
<g opacity="0.3">
<path d="M55.0202 74.5406C47.286 81.0824 36.6325 83.9461 26.0526 81.3134C14.319 78.3929 5.67364 69.4585 2.56471 58.614C2.48986 60.0517 2.52342 61.5139 2.6757 62.9903C4.26823 78.5026 18.1351 89.7858 33.6462 88.1933C37.9605 87.7507 41.947 86.3556 45.4211 84.2417L58.4879 87.1725L54.8628 74.8116C54.917 74.7226 54.9673 74.631 55.0215 74.5406H55.0202Z" fill="#474867"/>
</g>
<path d="M39.7912 52.1784C37.3482 49.7354 33.3863 50.1729 30.942 52.6159L30.5613 52.9966L30.1805 52.6159C27.7375 50.1729 23.7756 49.7342 21.3313 52.1784C18.8883 54.6214 18.8883 58.5834 21.3313 61.0277L21.712 61.4084L29.3946 69.091C30.0386 69.735 31.0826 69.735 31.7279 69.091L39.4105 61.4084L39.7912 61.0277C42.2342 58.5847 42.2342 54.6227 39.7912 52.1784Z" fill="#FF0068"/>
<g opacity="0.2">
<path d="M196.192 389C269.253 389 328.481 386.175 328.481 382.691C328.481 379.206 269.253 376.381 196.192 376.381C123.131 376.381 63.9033 379.206 63.9033 382.691C63.9033 386.175 123.131 389 196.192 389Z" fill="#000072"/>
</g>
</g>
<defs>
<clipPath id="clip0_1801_393">
<rect width="390.789" height="389" fill="white"/>
</clipPath>
</defs>
</svg>
