<svg width="31" height="20" viewBox="0 0 31 20" fill="none" xmlns="http://www.w3.org/2000/svg">
<path fill-rule="evenodd" clip-rule="evenodd" d="M0.957031 1.5C0.957031 0.913197 1.43273 0.4375 2.01953 0.4375H9.19141C10.5299 0.4375 11.8136 0.969223 12.7601 1.9157C13.7066 2.86217 14.2383 4.14586 14.2383 5.48438C14.2383 6.72762 13.7796 7.92357 12.9558 8.84593C13.6123 9.12324 14.2158 9.52638 14.7295 10.04C15.7756 11.0861 16.3633 12.505 16.3633 13.9844C16.3633 15.4638 15.7756 16.8826 14.7295 17.9287C13.6834 18.9748 12.2646 19.5625 10.7852 19.5625H2.01953C1.43273 19.5625 0.957031 19.0868 0.957031 18.5V1.5ZM3.08203 10.5312V17.4375H10.7852C11.701 17.4375 12.5793 17.0737 13.2269 16.4261C13.8745 15.7785 14.2383 14.9002 14.2383 13.9844C14.2383 13.0685 13.8745 12.1902 13.2269 11.5426C12.5793 10.8951 11.701 10.5312 10.7852 10.5312H3.08203ZM9.19141 8.40625H3.08203V2.5625H9.19141C9.96634 2.5625 10.7095 2.87034 11.2575 3.4183C11.8054 3.96626 12.1133 4.70945 12.1133 5.48438C12.1133 6.2593 11.8054 7.00249 11.2575 7.55045C10.7095 8.09841 9.96634 8.40625 9.19141 8.40625ZM19.0195 3.625C19.0195 3.0382 19.4952 2.5625 20.082 2.5625H28.582C29.1688 2.5625 29.6445 3.0382 29.6445 3.625C29.6445 4.2118 29.1688 4.6875 28.582 4.6875H20.082C19.4952 4.6875 19.0195 4.2118 19.0195 3.625ZM21.341 7.58953C22.6379 6.89477 24.1354 6.67095 25.5786 6.95616C27.0219 7.24137 28.3217 8.01799 29.2568 9.1538C30.1918 10.2896 30.7043 11.7144 30.707 13.1856C30.7075 13.4677 30.5958 13.7385 30.3965 13.9381C30.1972 14.1378 29.9267 14.25 29.6445 14.25H20.2415C20.2568 14.3098 20.2735 14.3693 20.2915 14.4286C20.5763 15.3661 21.1772 16.1759 21.9919 16.7201C22.8066 17.2644 23.7847 17.5094 24.7598 17.4136C25.7348 17.3177 26.6466 16.8869 27.3397 16.1944C27.7548 15.7797 28.4276 15.78 28.8423 16.1952C29.257 16.6103 29.2567 17.283 28.8416 17.6978C27.8008 18.7376 26.4318 19.3845 24.9676 19.5284C23.5035 19.6723 22.0348 19.3043 20.8114 18.4871C19.5881 17.6699 18.6858 16.4539 18.2582 15.0462C18.0992 14.5225 18.0094 13.9843 17.9884 13.4449C17.9679 13.3625 17.957 13.2763 17.957 13.1875C17.957 13.0974 17.9683 13.0099 17.9894 12.9263C18.0208 12.1895 18.1803 11.4583 18.4662 10.7666C19.0283 9.40703 20.0442 8.28429 21.341 7.58953ZM20.2465 12.125H28.4441C28.2899 11.5353 28.009 10.9816 27.6162 10.5044C26.9935 9.74799 26.1279 9.23079 25.1667 9.04084C24.2055 8.8509 23.2082 8.99996 22.3446 9.46265C21.4809 9.92534 20.8043 10.6731 20.43 11.5785C20.3562 11.7571 20.295 11.9398 20.2465 12.125Z" fill="black"/>
</svg>
