<svg width="39" height="39" viewBox="0 0 39 39" fill="none" xmlns="http://www.w3.org/2000/svg">
<path fill-rule="evenodd" clip-rule="evenodd" d="M3.65625 8.53125C3.65625 7.85815 4.2019 7.3125 4.875 7.3125H34.125C34.7981 7.3125 35.3438 7.85815 35.3438 8.53125V29.25C35.3438 29.8965 35.0869 30.5165 34.6298 30.9736C34.1727 31.4307 33.5527 31.6875 32.9062 31.6875H6.09375C5.44729 31.6875 4.8273 31.4307 4.37018 30.9736C3.91306 30.5165 3.65625 29.8965 3.65625 29.25V8.53125ZM6.09375 9.75V29.25H32.9062V9.75H6.09375Z" fill="black"/>
<path fill-rule="evenodd" clip-rule="evenodd" d="M3.9766 7.70772C4.43143 7.21154 5.20237 7.17802 5.69855 7.63285L19.5 20.2842L33.3015 7.63285C33.7976 7.17802 34.5686 7.21154 35.0234 7.70772C35.4782 8.20389 35.4447 8.97484 34.9485 9.42966L20.3235 22.8359C19.8576 23.263 19.1424 23.263 18.6765 22.8359L4.05147 9.42966C3.55529 8.97484 3.52177 8.20389 3.9766 7.70772Z" fill="black"/>
</svg>
