<svg width="31" height="30" viewBox="0 0 31 30" fill="none" xmlns="http://www.w3.org/2000/svg">
<path fill-rule="evenodd" clip-rule="evenodd" d="M15.3848 0.125C19.4246 0.125 19.9311 0.141963 21.5179 0.214279C23.1011 0.286594 24.1823 0.538062 25.1286 0.90589C26.1068 1.28592 26.9362 1.79451 27.7632 2.62153C28.5903 3.44854 29.0988 4.27794 29.4789 5.25614C29.8467 6.20249 30.0982 7.28365 30.1705 8.86686C30.2428 10.4536 30.2598 10.9601 30.2598 15C30.2598 19.0399 30.2428 19.5464 30.1705 21.1328C30.0982 22.716 29.8467 23.7975 29.4789 24.7436C29.0988 25.7218 28.5903 26.5515 27.7632 27.3785C26.9362 28.2055 26.1068 28.7138 25.1286 29.0941C24.1823 29.4619 23.1011 29.7131 21.5179 29.7854C19.9311 29.8577 19.4246 29.875 15.3848 29.875C11.3449 29.875 10.8384 29.8577 9.25192 29.7857C7.66872 29.7134 6.58726 29.4619 5.6412 29.0941C4.663 28.7138 3.83331 28.2055 3.00629 27.3785C2.17927 26.5512 1.67068 25.7218 1.29066 24.7436C0.922828 23.7975 0.671657 22.716 0.599342 21.1328C0.526729 19.5464 0.509766 19.0399 0.509766 15C0.509766 10.9601 0.526431 10.4536 0.599044 8.86686C0.67136 7.28365 0.92253 6.20249 1.29036 5.25614C1.67068 4.27794 2.17927 3.44854 3.00659 2.62153C3.8339 1.79451 4.6633 1.28592 5.6415 0.90589C6.58755 0.538062 7.66842 0.286594 9.25192 0.214279C10.8384 0.141963 11.3449 0.125 15.3848 0.125ZM15.3848 2.80514C11.4131 2.80514 10.9426 2.82002 9.37394 2.89174C7.92376 2.95781 7.13602 3.20035 6.61196 3.4039C5.91767 3.67382 5.42217 3.99612 4.90168 4.51691C4.38088 5.03711 4.05859 5.5326 3.78867 6.22719C3.58511 6.75096 3.34287 7.53869 3.27681 8.98887C3.20509 10.5578 3.18991 11.028 3.18991 15C3.18991 18.9717 3.20509 19.4422 3.27681 21.0108C3.34287 22.461 3.58511 23.2487 3.78867 23.7728C4.05859 24.4671 4.38088 24.9626 4.90168 25.4831C5.42217 26.0039 5.91767 26.3262 6.61196 26.5961C7.13602 26.7997 7.92376 27.0419 9.37394 27.108C10.9423 27.1794 11.4125 27.1949 15.3848 27.1949C19.3571 27.1949 19.8273 27.1797 21.3956 27.108C22.8458 27.0419 23.6335 26.7997 24.1576 26.5961C24.8522 26.3262 25.3477 26.0039 25.8682 25.4831C26.3886 24.9626 26.7109 24.4671 26.9809 23.7728C27.1844 23.2487 27.427 22.461 27.4927 21.0108C27.5644 19.4425 27.5796 18.9717 27.5796 15C27.5796 11.028 27.5647 10.5578 27.493 8.98917C27.427 7.53869 27.1844 6.75126 26.9809 6.22719C26.7109 5.5326 26.3886 5.03711 25.8679 4.51661C25.3477 3.99612 24.8522 3.67382 24.1576 3.4039C23.6338 3.20035 22.8458 2.95781 21.3956 2.89174C19.8273 2.82032 19.3568 2.80514 15.3848 2.80514ZM15.3895 7.40954C19.5791 7.40954 22.9752 10.8057 22.9752 14.9952C22.9752 19.1848 19.5791 22.5809 15.3895 22.5809C11.2 22.5809 7.80382 19.1848 7.80382 14.9952C7.80382 10.8057 11.2 7.40954 15.3895 7.40954ZM15.3895 19.9192C18.109 19.9192 20.3135 17.7147 20.3135 14.9952C20.3135 12.2758 18.109 10.0712 15.3895 10.0712C12.6701 10.0712 10.4655 12.2758 10.4655 14.9952C10.4655 17.7147 12.6701 19.9192 15.3895 19.9192ZM25.0176 6.97207C25.0176 8.01961 24.2338 8.86864 23.2672 8.86864C22.3 8.86864 21.5164 8.01961 21.5164 6.97207C21.5164 5.92454 22.3003 5.07579 23.2672 5.07579C24.2338 5.07579 25.0176 5.92483 25.0176 6.97207Z" fill="black"/>
</svg>
