<svg width="39" height="40" viewBox="0 0 39 40" fill="none" xmlns="http://www.w3.org/2000/svg">
<path d="M26.8486 34.625C14.7326 34.625 4.875 24.7674 4.875 12.6514C4.875 8.36351 8.08253 4.72108 12.3338 4.17632C13.4157 4.03593 14.464 4.64326 14.8821 5.65038L17.9447 12.7948C18.2667 13.5365 18.198 14.3925 17.7601 15.0777L15.2087 18.9581C16.3409 21.2913 18.2499 23.1972 20.5876 24.3203L24.401 21.7659C25.0877 21.3005 25.9605 21.2196 26.728 21.5553L33.8618 24.6194C34.8568 25.0329 35.4625 26.0812 35.3237 27.1631C34.7789 31.4144 31.1365 34.6204 26.8501 34.6219L26.8486 34.625ZM12.6329 6.59952C9.60085 6.99321 7.31651 9.59342 7.31651 12.6514C7.31651 23.4215 16.0785 32.1835 26.8486 32.1835C29.9066 32.1835 32.5053 29.8976 32.9005 26.8671L25.7575 23.8L21.9427 26.3483C21.2362 26.8259 20.313 26.8961 19.5363 26.5283C16.695 25.1611 14.3801 22.8523 13.0083 20.0202L13.0052 20.0156C12.6421 19.2557 12.7 18.3432 13.1578 17.6351L15.7107 13.7516L12.6344 6.60104L12.6329 6.59952Z" fill="black"/>
</svg>
